/* XPM */
static const char *floor[] = {
/* columns rows colors chars-per-pixel */
"32 32 9 1 ",
"  c magenta",
". c #579945",
"X c #A2C758",
"o c #275348",
"O c #316652",
"+ c #204042",
"@ c #336547",
"# c #182C3B",
"$ c white",
/* pixels */
"                                ",
"   .  .    .  .    .  .    .  . ",
"  ..  ..  ..  ..  ..  ..  ..  ..",
"X..XX.XXX..X.XXX.ooOOOoOOoOOO.XX",
"XXXXXXXXXXXXXXXooOoOOooOOooOoOOX",
"XXXXXXXXXXXXXXX+X+oooo+Xoo++oX+X",
"..XXX..XXXXX.XXXX.+X++XX+X..+XXX",
"XX.X.XXXXXX.XXXXXX.X.XXXXXX.XXXX",
"XX...XX..XX.XX.@XX...XX..XX.XX.@",
"@X@@.X....X@X..@@X@@.X....X@X..@",
".@@@@..@@.@@@@.@.@@@@..@@.@@@@.@",
".@..@.@@@@@..@@..@..@.@@@@@..@@.",
".@...@@...@...@..@...@@...@...@.",
"@@@..@...@@@..@.@@@..@...@@@..@.",
"@@@@.@..@@@@@.@@@@@@.@..@@@@@.@@",
"@@@###.@@#@@#@@#@@@###.@@#@@#@@#",
"#@#+++#@#+@#+@#+#@#+++#@#+@#+@#+",
"++++++++++++++++++++++++++++++++",
"++oo++++++ooo+++++oo++++++ooo+++",
"+ooo+ooo++ooo++++ooo+ooo++ooo+++",
"+ooo+ooo++oo++oo+ooo+ooo++oo++oo",
"+oo+++oo+++++ooo+oo+++oo+++++ooo",
"+++++++++oo++oo++++++++++oo++oo+",
"+++++++++oo++++++++++++++oo+++++",
"++++++#+++++++++++++++#+++++++++",
"++######++#++++#++######++#++++#",
"###+++######++#####+++######++##",
"###+++#############+++##########",
"###++###++##++#####++###++##++##",
"++######+++#++#+++######+++#++#+",
"++##++###++####+++##++###++####+",
"++##++##########++##++##########"
};
