/* XPM */
static char *result[] = {
/* columns rows colors chars-per-pixel */
"32 32 115 2 ",
"   c #1C1017",
".  c #1D1817",
"X  c #1F1618",
"o  c #1F1B18",
"O  c #211718",
"+  c #221B18",
"@  c #2E1F1C",
"#  c #331F1D",
"$  c #1B2E1E",
"%  c #1C301F",
"&  c #22201A",
"*  c #2C211B",
"=  c #32211E",
"-  c #38231E",
";  c #3E2A1F",
":  c #25351F",
">  c #392720",
",  c #482724",
"<  c #432A21",
"1  c #4A2925",
"2  c #542A27",
"3  c #552C28",
"4  c #473526",
"5  c #493323",
"6  c #4D3927",
"7  c #4F3C28",
"8  c #612F2C",
"9  c #65342C",
"0  c #6B352E",
"q  c #69392C",
"w  c #773E30",
"e  c #783F30",
"r  c #3A431F",
"t  c #184023",
"y  c #144B26",
"u  c #0D5A2A",
"i  c #374220",
"p  c #3E4920",
"a  c #0D612C",
"s  c #147E2F",
"d  c #056A31",
"f  c #086A30",
"g  c #0B7630",
"h  c #296C2C",
"j  c #404920",
"k  c #77492B",
"l  c #6A4030",
"z  c #7C4131",
"x  c #536B25",
"c  c #854D2F",
"v  c #844A33",
"b  c #894B33",
"n  c #8F5035",
"m  c #935334",
"M  c #935639",
"N  c #965A3B",
"B  c #A45E37",
"V  c #A65F38",
"C  c #9B6338",
"Z  c #A76037",
"A  c #A76038",
"S  c #AA6339",
"D  c #AB683D",
"F  c #B16739",
"G  c #B56B3A",
"H  c #B96D3A",
"J  c #BB703C",
"K  c #966A41",
"L  c #A77644",
"P  c #AB7F49",
"I  c #B77141",
"U  c #BD7540",
"Y  c #B87C49",
"T  c #C07740",
"R  c #C27A42",
"E  c #15802F",
"W  c #1A842E",
"Q  c #26912C",
"!  c #2F9D2B",
"~  c #329B2D",
"^  c #3DAC29",
"/  c #668B2A",
"(  c #60962E",
")  c #40AF29",
"_  c #4CBD27",
"`  c #43B129",
"'  c #50BE28",
"]  c #7AAA2F",
"[  c #4FC027",
"{  c #51C027",
"}  c #55C029",
"|  c #5CC32A",
" . c #60C62B",
".. c #6DCB2E",
"X. c #76CC2F",
"o. c #6CC232",
"O. c #77CD30",
"+. c #78CE30",
"@. c #81B731",
"#. c #85D433",
"$. c #8AD634",
"%. c #8CD934",
"&. c #91D335",
"*. c #96DA36",
"=. c #99DC37",
"-. c #9AE037",
";. c #AD804A",
":. c #C1824B",
">. c #C98448",
",. c #CC8B4C",
"<. c #C68C51",
"1. c #D59653",
"2. c #D79A55",
"3. c #DCA059",
"4. c None",
/* pixels */
"4.4.4.4.X X X X O O O O . O + o . O O . . X X X X X O O 4.4.4.4.",
"4.4.4.4.r p p p r r r j j r r r r j j j p p p p p p j r 4.4.4.4.",
"4.4.  r / ] ] ] ] ] ] ] ] ] ] ] ] ] ] ] ] ] ] ] ] ] ] ( r   4.4.",
"4.4.r x @.-.-.=.=.=.=.&.%.%.%.#.#.#.%.%.*.*.$.$.*.=.-.] x r 4.4.",
"O r / @.$.=.=.=.*.*.*.&...|  .| | | | ..%.$.....$.=.=.&.@./ r . ",
". j ] =.$.#.&.*.*.*.*.#.| _ | | [ [ _ | O.O.| } O.$.&.=.-.] p X ",
"O p ] $...X.#.*.*.*.&.#.| | X.+.| _ _ ' | | [ _ | ..#.=.-.] p X ",
"O p ] #. .' #.*.*.*.*.#.| | +.+.| _ ^ ^ ^ ^ _ _ _ ' X.%.=.] p X ",
"X p ] $.| | #.=.*.*.*.#.| ' | | ' ) Q W E Q ^ ' _ ' } ..%.] j O ",
"O i ( o.} | X.#.#.#.#.O.| _ _ _ ' ^ s d d E ^ [ ' _ _ | o.( r O ",
"+ : h ~ ` } |  .o.' ' ' ' _ _ _ ' ^ s f d E ^ [ _ _ _ ` ~ h : O ",
"O % u s ! ) _ _ ' ' ' ' ) ) _ ' ' ) Q W W Q ` [ ' _ ` ~ s u % + ",
"O % u g s Q ) [ ' ' ' ) Q Q ) ' } _ ^ ^ ` ` _ [ { ` Q s g u % O ",
"O : y u f s ~ ) ) ) ) ! s s ! ) ^ ^ ^ ^ ^ ^ ^ ^ ^ ~ E f a y : + ",
"O & : t a g W W W W W s g g s W W W W W W W W W W E g a t : + O ",
"O + O $ y u u u u u u u u u u u u u u u u u u u u u u t $ O + + ",
"+ + + + $ % % % % $ $ $ % $ % $ % % % % $ % $ $ % $ % $ + O + & ",
"+ * ; < - # @ @ # # # # = # # # = = # = = = = # # # = = < ; * + ",
"+ > k v 9 2 3 3 2 3 3 3 2 3 2 2 3 3 2 2 2 2 2 2 2 2 2 9 c k ; + ",
". 6 C I b z v v z z z z z z z z z z z z z z z z z z v N J C 5 . ",
". 7 L ,.I D Y Y D B B B B B B B V B Z B Z B B B B F ;.<.1.L 6 . ",
". 7 P 1.R J ,.,.R H H H H H H H H G Z B Z Z G H H R ,.2.3.P 6 . ",
". 7 P 1.R H U U H H H H H H G H H Z b e z b Z H H H J >.2.;.7 . ",
". 7 ;.1.R G G F Z B B Z F G G H H B z 8 8 w B G A V D U 1.;.7 . ",
". 7 ;.2.R H G V b w w b A H G H H B z 3 8 z A A b v B R 1.P 7 . ",
". 4 K ;.T H H B z 8 8 z V H H H H Z b z z b S A b b V T >.K 4 . ",
". - l M F J H V w 8 8 z V H H G H G Z Z N S F G B Z G S M l > + ",
"+ = 1 q m V V m w 9 9 z m V V V B B Z Z Z Z A A B V V m 9 , = + ",
"4.4.* < 0 v e w q 0 0 q z z z z z z z z z z z z z z z q < * 4.4.",
"4.4.+ = 1 2 2 2 3 3 3 3 3 3 3 3 2 2 3 2 3 3 3 3 3 3 3 1 = . 4.4.",
"4.4.4.4.= = = = = = = = * = = = = = = = = = = = - = = = 4.4.4.4.",
"4.4.4.4.+ + O + + + + o + + + + + + & + + o + + + + + + 4.4.4.4."
};
