/* XPM */
static const char *runl_07[] = {
/* columns rows colors chars-per-pixel */
"42 66 27 1 ",
"  c magenta",
". c #8A583D",
"X c #613835",
"o c #452933",
"O c #E39C76",
"+ c #402018",
"@ c #C7795A",
"# c #A65A46",
"$ c #FFC79C",
"% c #808274",
"& c #58594C",
"* c #FFD1A4",
"= c #2B2B26",
"- c #3F3F37",
"; c #2E1A23",
": c #815646",
"> c #172D3B",
", c #245257",
"< c #418079",
"1 c #6EC09B",
"2 c #63403D",
"3 c #BD8259",
"4 c #B76A50",
"5 c #244B57",
"6 c #EBC678",
"7 c #543538",
"8 c white",
/* pixels */
"          ....XXXX                        ",
"          ....XXXX                        ",
"        ......XX......            XX      ",
"        ......XX......            XX      ",
"        ................XXXXXX    XX      ",
"        ................XXXXXX    XX      ",
"        ....XX............XXXXoooooo      ",
"        ....XX............XXXXoooooo      ",
"          ..XX..............XXXXoooo      ",
"          ..XX..............XXXXoooo      ",
"            ..XXXX..XXXX........XXXX      ",
"            ..XXXX..XXXX........XXXX      ",
"              OOOOOOOOOOOO....XXXXoo      ",
"              OOOOOOOOOOOO....XXXXoo      ",
"            ++++OO++++++++OOXX..XXXX      ",
"            ++++OO++++++++OOXX..XXXX      ",
"              @@####@@@@@@OOXXXXoooo      ",
"              @@####@@@@@@OOXXXXoooo      ",
"              ++####OO++++OO@@XXOO$$      ",
"              ++####OO++++OO@@XXOO$$      ",
"      %%&&    **####******OO@@oo$$$$      ",
"      %%&&    **####******OO@@oo$$$$      ",
"      &&&&&&==**************@@@@oo        ",
"      &&&&&&==**************@@@@oo        ",
"        &&--;;****OOOO******OOOO          ",
"        &&--;;****OOOO******OOOO          ",
"          ;;;;;;**********OOOO            ",
"          ;;;;;;**********OOOO            ",
"            ;;::>>######,,<<<<<<11<<      ",
"            ;;::>>######,,<<<<<<11<<      ",
"            ::::22>>,,,,<<<<<<11<<111111  ",
"            ::::22>>,,,,<<<<<<11<<111111  ",
"OOOOOO      ::333322111111<<<<<<1111111111",
"OOOOOO      ::333322111111<<<<<<1111111111",
"OOOOOO4455  1133333322111111<<<<1111111111",
"OOOOOO4455  1133333322111111<<<<1111111111",
"OOOO444455<<1111333333221111<<<<1111<<<<<<",
"OOOO444455<<1111333333221111<<<<1111<<<<<<",
"OOOO44<<55<<1111113333332222<<<<  11111111",
"OOOO44<<55<<1111113333332222<<<<  11111111",
"    <<55<<<<11111111333333::::oo******OO  ",
"    <<55<<<<11111111333333::::oo******OO  ",
"      <<<<<<<<11111111::::::;;;;OO******  ",
"      <<<<<<<<11111111::::::;;;;OO******  ",
"              <<<<<<<<<<<<<<;;;;******    ",
"              <<<<<<<<<<<<<<;;;;******    ",
"              ;;6633;;;;7777  ;;;;        ",
"              ;;6633;;;;7777  ;;;;        ",
"              ::33::::::::::              ",
"              ::33::::::::::              ",
"              33333333::7777              ",
"              33333333::7777              ",
"            33333333::777777  ;;oo        ",
"            33333333::777777  ;;oo        ",
"            333333337777::::::;;oooo      ",
"            333333337777::::::;;oooo      ",
"          ::3333::    ::::::::77  oo      ",
"          ::3333::    ::::::::77  oo      ",
"          333333        77::77            ",
"          333333        77::77            ",
"          ;;;;::                          ",
"          ;;;;::                          ",
"        7777;;                            ",
"        7777;;                            ",
"          7777                            ",
"          7777                            "
};
