/* XPM */
static const char *runr_03[] = {
/* columns rows colors chars-per-pixel */
"42 66 24 1 ",
"  c #2E1A23",
". c #172D3B",
"X c #3F3F37",
"o c #402018",
"O c #452933",
"+ c #543538",
"@ c #613835",
"# c #63403D",
"$ c #245257",
"% c #58594C",
"& c #8A583D",
"* c #815646",
"= c #A65A46",
"- c #B76A50",
"; c #C7795A",
": c #418079",
"> c #BD8259",
", c #808274",
"< c #E39C76",
"1 c #EBC678",
"2 c #6EC09B",
"3 c #FFC79C",
"4 c #FFD1A4",
"5 c None",
/* pixels */
"555555&&&&&&55&&&&555555555555555555555555",
"555555&&&&&&55&&&&555555555555555555555555",
"555555&&&&&&@@&&&&&&@@@@@@555555@@55555555",
"555555&&&&&&@@&&&&&&@@@@@@555555@@55555555",
"555555&&&&&&&&&&&&&&&&@@@@@@OOOOOO55555555",
"555555&&&&&&&&&&&&&&&&@@@@@@OOOOOO55555555",
"55555555&&@@&&&&&&&&&&&&&&@@@@@@OOOO555555",
"55555555&&@@&&&&&&&&&&&&&&@@@@@@OOOO555555",
"5555555555@@@@@@&&@@@@&&&&&&&&&&@@@@555555",
"5555555555@@@@@@&&@@@@&&&&&&&&&&@@@@555555",
"55555555555555<<<<<<<<<<&&&&@@@@OOOO555555",
"55555555555555<<<<<<<<<<&&&&@@@@OOOO555555",
"555555555555oo<<oooooooo<<@@&&@@@@@@555555",
"555555555555oo<<oooooooo<<@@&&@@@@@@555555",
"55555555555555====;;;;;;<<@@@@OOOOOO555555",
"55555555555555====;;;;;;<<@@@@OOOOOO555555",
"55555555555555====<<oooo<<;;@@<<33OO555555",
"55555555555555====<<oooo<<;;@@<<33OO555555",
"55555555555555====444444<<;;OO333355555555",
"55555555555555====444444<<;;OO333355555555",
"5555555555,,%%444444444444;;;;OOOO55555555",
"5555555555,,%%444444444444;;;;OOOO55555555",
"5555555555%%XX44<<<<444444<<<<;;5555555555",
"5555555555%%XX44<<<<444444<<<<;;5555555555",
"555555555555    44444444<<<<;;555555555555",
"555555555555    44444444<<<<;;555555555555",
"555555555555  **..====$$::::$$$$5555555555",
"555555555555  **..====$$::::$$$$5555555555",
"555555555555**##..$$$$::::::::$$$$55555555",
"555555555555**##..$$$$::::::::$$$$55555555",
"555544<<4455**##::::22::22::::$$$$$$555555",
"555544<<4455**##::::22::22::::$$$$$$555555",
"554444444422::2222222222::22::$$------5555",
"554444444422::2222222222::22::$$------5555",
"554444444422::222222222222::$$--------5555",
"554444444422::222222222222::$$--------5555",
"555544442222::2222222222::::$$--------5555",
"555544442222::2222222222::::$$--------5555",
"5555555555::22222222>>>>**####55----555555",
"5555555555::22222222>>>>**####55----555555",
"55555555555555::::**********OO555555555555",
"55555555555555::::**********OO555555555555",
"5555555555555555::::::::::::  555555555555",
"5555555555555555::::::::::::  555555555555",
"55555555555555  1111>>    ++  OO5555555555",
"55555555555555  1111>>    ++  OO5555555555",
"555555555555**++**>>********    5555555555",
"555555555555**++**>>********    5555555555",
"5555555555******++>>>>>>>>**    5555555555",
"5555555555******++>>>>>>>>**    5555555555",
"55555555********++++>>>>>>>>>>555555555555",
"55555555********++++>>>>>>>>>>555555555555",
"55555555****++55555555>>>>>>>>>>  ++++5555",
"55555555****++55555555>>>>>>>>>>  ++++5555",
"55555555    555555555555**>>>>**  ++++5555",
"55555555    555555555555**>>>>**  ++++5555",
"55555555OOOO555555555555555555555555++5555",
"55555555OOOO555555555555555555555555++5555",
"555555OOOOOO555555555555555555555555555555",
"555555OOOOOO555555555555555555555555555555",
"555555555555555555555555555555555555555555",
"555555555555555555555555555555555555555555",
"555555555555555555555555555555555555555555",
"555555555555555555555555555555555555555555",
"555555555555555555555555555555555555555555",
"555555555555555555555555555555555555555555"
};
