/* XPM */
static const char *runl_01[] = {
/* columns rows colors chars-per-pixel */
"42 66 26 1 ",
"  c magenta",
". c #8A583D",
"X c #613835",
"o c #452933",
"O c #E39C76",
"+ c #402018",
"@ c #C7795A",
"# c #A65A46",
"$ c #FFC79C",
"% c #FFD1A4",
"& c #808274",
"* c #58594C",
"= c #2B2B26",
"- c #3F3F37",
"; c #2E1A23",
": c #815646",
"> c #172D3B",
", c #245257",
"< c #418079",
"1 c #6EC09B",
"2 c #63403D",
"3 c #BD8259",
"4 c #B76A50",
"5 c #EBC678",
"6 c #543538",
"7 c white",
/* pixels */
"                                          ",
"                                          ",
"                                          ",
"                                          ",
"          ....XX....XXXXXXXX              ",
"          ....XX....XXXXXXXX              ",
"        ......XX........XXXXXXooooXX      ",
"        ......XX........XXXXXXooooXX      ",
"        ....................XXXXoooo      ",
"        ....................XXXXoooo      ",
"          ..XXXXXX..XXXX........XXXX      ",
"          ..XXXXXX..XXXX........XXXX      ",
"            XXOOOOOOOOOOOO....XXXXoo      ",
"            XXOOOOOOOOOOOO....XXXXoo      ",
"            ++++OO++++++++OOXX..XXXX      ",
"            ++++OO++++++++OOXX..XXXX      ",
"              @@####@@@@@@OOXXXXoooo      ",
"              @@####@@@@@@OOXXXXoooo      ",
"              ++####OO++++OO@@XXOO$$      ",
"              ++####OO++++OO@@XXOO$$      ",
"              %%####%%%%%%OO@@oo$$$$      ",
"              %%####%%%%%%OO@@oo$$$$      ",
"      &&**    %%%%%%%%%%%%%%@@@@oo        ",
"      &&**    %%%%%%%%%%%%%%@@@@oo        ",
"      ******==%%%%OOOO%%%%%%OOOO          ",
"      ******==%%%%OOOO%%%%%%OOOO          ",
"        **--;;oo%%%%%%%%%%OOOO            ",
"        **--;;oo%%%%%%%%%%OOOO            ",
"          ;;;;::>>######,,<<<<11<<        ",
"          ;;;;::>>######,,<<<<11<<        ",
"            ::::22>>,,,,<<<<11<<111111    ",
"            ::::22>>,,,,<<<<11<<111111    ",
"            ::333322111111<<<<1111111111  ",
"            ::333322111111<<<<1111111111  ",
"            1133333322111111<<1111111111  ",
"            1133333322111111<<1111111111  ",
"    OOOOOO  1111333333221111<<1111<<<<<<  ",
"    OOOOOO  1111333333221111<<1111<<<<<<  ",
"    OOOOOO441111113333332222<<1111111111  ",
"    OOOOOO441111113333332222<<1111111111  ",
"    OO44444411111111333333::<<%%%%%%OO    ",
"    OO44444411111111333333::<<%%%%%%OO    ",
"    OOOO44<<<<11111111::::::;;OO%%%%%%    ",
"    OOOO44<<<<11111111::::::;;OO%%%%%%    ",
"              <<<<<<<<<<<<<<;;%%%%%%      ",
"              <<<<<<<<<<<<<<;;%%%%%%      ",
"              ;;555533;;;;66;;;;;;        ",
"              ;;555533;;;;66;;;;;;        ",
"              ::3333::::::::  ;;;;        ",
"              ::3333::::::::  ;;;;        ",
"              3333333333::66              ",
"              3333333333::66              ",
"              ::333333666666              ",
"              ::333333666666              ",
"                33::;;;;::66              ",
"                33::;;;;::66              ",
"                  ;;6666::::              ",
"                  ;;6666::::              ",
"                    6666::::66            ",
"                    6666::::66            ",
"                      66  ;;;;            ",
"                      66  ;;;;            ",
"                          oooo            ",
"                          oooo            ",
"                        oooooo            ",
"                        oooooo            "
};
