/* XPM */
static const char *runr_00[] = {
/* columns rows colors chars-per-pixel */
"42 66 26 1 ",
"  c #2E1A23",
". c #172D3B",
"X c #2B2B26",
"o c #3F3F37",
"O c #402018",
"+ c #452933",
"@ c #543538",
"# c #613835",
"$ c #63403D",
"% c #244B57",
"& c #245257",
"* c #58594C",
"= c #8A583D",
"- c #815646",
"; c #A65A46",
": c #B76A50",
"> c #C7795A",
", c #418079",
"< c #BD8259",
"1 c #808274",
"2 c #E39C76",
"3 c #EBC678",
"4 c #6EC09B",
"5 c #FFC79C",
"6 c #FFD1A4",
"7 c None",
/* pixels */
"7777777777====####777777777777777777777777",
"7777777777====####777777777777777777777777",
"77777777======##======777777777777##777777",
"77777777======##======777777777777##777777",
"77777777================######7777##777777",
"77777777================######7777##777777",
"77777777====##============####++++++777777",
"77777777====##============####++++++777777",
"7777777777==##==============####++++777777",
"7777777777==##==============####++++777777",
"777777777777==####==####========####777777",
"777777777777==####==####========####777777",
"77777777777777222222222222====####++777777",
"77777777777777222222222222====####++777777",
"777777777777OOOO22OOOOOOOO22##==####777777",
"777777777777OOOO22OOOOOOOO22##==####777777",
"77777777777777>>;;;;>>>>>>22####++++777777",
"77777777777777>>;;;;>>>>>>22####++++777777",
"77777777777777OO;;;;22OOOO22>>##2255777777",
"77777777777777OO;;;;22OOOO22>>##2255777777",
"77777711**777766;;;;66666622>>++5555777777",
"77777711**777766;;;;66666622>>++5555777777",
"777777******XX66666666666666>>>>++77777777",
"777777******XX66666666666666>>>>++77777777",
"77777777**oo  6666222266666622227777777777",
"77777777**oo  6666222266666622227777777777",
"7777777777      66666666662222777777777777",
"7777777777      66666666662222777777777777",
"777777777777  --..;;;;;;&&,,,,,,44,,777777",
"777777777777  --..;;;;;;&&,,,,,,44,,777777",
"777777777777----$$..&&&&,,,,,,44,,44444477",
"777777777777----$$..&&&&,,,,,,44,,44444477",
"222222777777--<<<<$$444444,,,,,,4444444444",
"222222777777--<<<<$$444444,,,,,,4444444444",
"222222::%%7744<<<<<<$$444444,,,,4444444444",
"222222::%%7744<<<<<<$$444444,,,,4444444444",
"2222::::%%,,4444<<<<<<$$4444,,,,4444,,,,,,",
"2222::::%%,,4444<<<<<<$$4444,,,,4444,,,,,,",
"2222::,,%%,,444444<<<<<<$$$$,,,,7744444444",
"2222::,,%%,,444444<<<<<<$$$$,,,,7744444444",
"7777,,%%,,,,44444444<<<<<<----++6666662277",
"7777,,%%,,,,44444444<<<<<<----++6666662277",
"777777,,,,,,,,44444444------    2266666677",
"777777,,,,,,,,44444444------    2266666677",
"77777777777777,,,,,,,,,,,,,,    6666667777",
"77777777777777,,,,,,,,,,,,,,    6666667777",
"77777777777777  33<<    @@@@77    77777777",
"77777777777777  33<<    @@@@77    77777777",
"77777777777777--<<----------77777777777777",
"77777777777777--<<----------77777777777777",
"77777777777777<<<<<<<<--@@@@77777777777777",
"77777777777777<<<<<<<<--@@@@77777777777777",
"777777777777<<<<<<<<--@@@@@@77  ++77777777",
"777777777777<<<<<<<<--@@@@@@77  ++77777777",
"777777777777<<<<<<<<@@@@------  ++++777777",
"777777777777<<<<<<<<@@@@------  ++++777777",
"7777777777--<<<<--7777--------@@77++777777",
"7777777777--<<<<--7777--------@@77++777777",
"7777777777<<<<<<77777777@@--@@777777777777",
"7777777777<<<<<<77777777@@--@@777777777777",
"7777777777    --77777777777777777777777777",
"7777777777    --77777777777777777777777777",
"77777777@@@@  7777777777777777777777777777",
"77777777@@@@  7777777777777777777777777777",
"7777777777@@@@7777777777777777777777777777",
"7777777777@@@@7777777777777777777777777777"
};
