/* XPM */
static const char *runl_03[] = {
/* columns rows colors chars-per-pixel */
"42 66 25 1 ",
"  c magenta",
". c #8A583D",
"X c #613835",
"o c #452933",
"O c #E39C76",
"+ c #402018",
"@ c #A65A46",
"# c #C7795A",
"$ c #FFC79C",
"% c #808274",
"& c #58594C",
"* c #FFD1A4",
"= c #3F3F37",
"- c #2E1A23",
"; c #815646",
": c #172D3B",
"> c #245257",
", c #418079",
"< c #63403D",
"1 c #BD8259",
"2 c #6EC09B",
"3 c #B76A50",
"4 c #EBC678",
"5 c #543538",
"6 c white",
/* pixels */
"        ....XXXX                          ",
"        ....XXXX                          ",
"      ......XX......            XX        ",
"      ......XX......            XX        ",
"      ................XXXXXX    XX        ",
"      ................XXXXXX    XX        ",
"      ....XX............XXXXoooooooo      ",
"      ....XX............XXXXoooooooo      ",
"        ..XX..............XXXXoooooo      ",
"        ..XX..............XXXXoooooo      ",
"          ..XXXX..XXXX........XXXXXX      ",
"          ..XXXX..XXXX........XXXXXX      ",
"              OOOOOOOOOO....XXXXoooo      ",
"              OOOOOOOOOO....XXXXoooo      ",
"            ++OO++++++++OOXX..XXXXXX      ",
"            ++OO++++++++OOXX..XXXXXX      ",
"              @@@@######OOXXXXoooooo      ",
"              @@@@######OOXXXXoooooo      ",
"              @@@@OO++++OO##XXOO$$oo      ",
"              @@@@OO++++OO##XXOO$$oo      ",
"        %%&&  @@@@******OO##oo$$$$        ",
"        %%&&  @@@@******OO##oo$$$$        ",
"        &&&&&&************####oooo        ",
"        &&&&&&************####oooo        ",
"          &&==**OOOO******OOOO##          ",
"          &&==**OOOO******OOOO##          ",
"          ==----********OOOO##            ",
"          ==----********OOOO##            ",
"            --;;::@@@@@@>>,,>>            ",
"            --;;::@@@@@@>>,,>>            ",
"            ;;<<,,::>>>>,,,,,,>>          ",
"            ;;<<,,::>>>>,,,,,,>>          ",
"            ;;<<,,,,,,,,,,,,,,>>>>        ",
"            ;;<<,,,,,,,,,,,,,,>>>>        ",
"  ****OO**  11;;<<,,,,,,22,,,,>>33        ",
"  ****OO**  11;;<<,,,,,,22,,,,>>33        ",
"  ********22,,,,,,,,2222,,22>>333333      ",
"  ********22,,,,,,,,2222,,22>>333333      ",
"  ********22,,222222222222,,>>333333      ",
"  ********22,,222222222222,,>>333333      ",
"    ****2222,,222222222222;;<<3333        ",
"    ****2222,,222222222222;;<<3333        ",
"        2222222222222222;;;;--oo          ",
"        2222222222222222;;;;--oo          ",
"              ,,,,,,,,,,,,,,----oo        ",
"              ,,,,,,,,,,,,,,----oo        ",
"              --444411----55------        ",
"              --444411----55------        ",
"              551111;;;;;;;;  ----        ",
"              551111;;;;;;;;  ----        ",
"            ;;55;;11111111;;              ",
"            ;;55;;11111111;;              ",
"            ;;;;551111111111    --55      ",
"            ;;;;551111111111    --55      ",
"          ;;;;;;55551111111111;;--5555    ",
"          ;;;;;;55551111111111;;--5555    ",
"          ;;;;;;55    1111111111;;  55    ",
"          ;;;;;;55    1111111111;;  55    ",
"        55;;;;55        ;;1111;;          ",
"        55;;;;55        ;;1111;;          ",
"        ----55                            ",
"        ----55                            ",
"      oooo--                              ",
"      oooo--                              ",
"        oooo                              ",
"        oooo                              "
};
