/* XPM */
static const char *runr_01[] = {
/* columns rows colors chars-per-pixel */
"42 66 25 1 ",
"  c #2E1A23",
". c #172D3B",
"X c #2B2B26",
"o c #3F3F37",
"O c #402018",
"+ c #452933",
"@ c #543538",
"# c #613835",
"$ c #63403D",
"% c #245257",
"& c #58594C",
"* c #8A583D",
"= c #815646",
"- c #A65A46",
"; c #B76A50",
": c #C7795A",
"> c #418079",
", c #BD8259",
"< c #808274",
"1 c #E39C76",
"2 c #EBC678",
"3 c #6EC09B",
"4 c #FFC79C",
"5 c #FFD1A4",
"6 c None",
/* pixels */
"666666666666666666666666666666666666666666",
"666666666666666666666666666666666666666666",
"666666666666666666666666666666666666666666",
"666666666666666666666666666666666666666666",
"6666666666****####666666666666666666666666",
"6666666666****####666666666666666666666666",
"66666666******##******666666666666##666666",
"66666666******##******666666666666##666666",
"66666666****************######6666##666666",
"66666666****************######6666##666666",
"66666666****##************####++++++666666",
"66666666****##************####++++++666666",
"6666666666**##**************####++++666666",
"6666666666**##**************####++++666666",
"666666666666**####**####********####666666",
"666666666666**####**####********####666666",
"66666666666666111111111111****####++666666",
"66666666666666111111111111****####++666666",
"666666666666OOOO11OOOOOOOO11##**####666666",
"666666666666OOOO11OOOOOOOO11##**####666666",
"66666666666666::----::::::11####++++666666",
"66666666666666::----::::::11####++++666666",
"66666666666666OO----11OOOO11::##1144666666",
"66666666666666OO----11OOOO11::##1144666666",
"6666666666666655----55555511::++4444666666",
"6666666666666655----55555511::++4444666666",
"666666<<&&666655555555555555::::++66666666",
"666666<<&&666655555555555555::::++66666666",
"666666&&&&&&XX5555111155555511116666666666",
"666666&&&&&&XX5555111155555511116666666666",
"66666666&&oo  ++55555555551111666666666666",
"66666666&&oo  ++55555555551111666666666666",
"6666666666    ==..------%%>>>>>>3366666666",
"6666666666    ==..------%%>>>>>>3366666666",
"666666666666====$$..%%%%>>>>>>33>>33666666",
"666666666666====$$..%%%%>>>>>>33>>33666666",
"666666666666==,,,,$$333333>>>>>>3333336666",
"666666666666==,,,,$$333333>>>>>>3333336666",
"66661111116633,,,,,,$$333333>>>>3333333366",
"66661111116633,,,,,,$$333333>>>>3333333366",
"6666111111;;3333,,,,,,$$3333>>>>33>>333366",
"6666111111;;3333,,,,,,$$3333>>>>33>>333366",
"666611;;;;;;333333,,,,,,$$$$55551133>>3366",
"666611;;;;;;333333,,,,,,$$$$55551133>>3366",
"66661111;;>>33333333,,,,==5555555533>>6666",
"66661111;;>>33333333,,,,==5555555533>>6666",
"66666666>>>>>>33333333====1155555566666666",
"66666666>>>>>>33333333====1155555566666666",
"66666666666666>>>>>>>>>>>>>>5555++66666666",
"66666666666666>>>>>>>>>>>>>>5555++66666666",
"66666666666666  2222,,    @@      66666666",
"66666666666666  2222,,    @@      66666666",
"66666666666666==,,==========66    66666666",
"66666666666666==,,==========66    66666666",
"66666666666666,,,,,,,,,,==@@66666666666666",
"66666666666666,,,,,,,,,,==@@66666666666666",
"66666666666666,,,,,,==@@@@@@  ++++66666666",
"66666666666666,,,,,,==@@@@@@  ++++66666666",
"66666666666666==,,,,@@======  ++++66666666",
"66666666666666==,,,,@@======  ++++66666666",
"6666666666666666    66@@==@@6666++66666666",
"6666666666666666    66@@==@@6666++66666666",
"6666666666666666@@@@6666666666666666666666",
"6666666666666666@@@@6666666666666666666666",
"66666666666666@@@@@@6666666666666666666666",
"66666666666666@@@@@@6666666666666666666666"
};
