/* XPM */
static const char *runr_05[] = {
/* columns rows colors chars-per-pixel */
"42 66 25 1 ",
"  c #2E1A23",
". c #172D3B",
"X c #2B2B26",
"o c #3F3F37",
"O c #402018",
"+ c #452933",
"@ c #543538",
"# c #613835",
"$ c #63403D",
"% c #245257",
"& c #58594C",
"* c #8A583D",
"= c #815646",
"- c #A65A46",
"; c #B76A50",
": c #C7795A",
"> c #418079",
", c #BD8259",
"< c #808274",
"1 c #E39C76",
"2 c #EBC678",
"3 c #6EC09B",
"4 c #FFC79C",
"5 c #FFD1A4",
"6 c None",
/* pixels */
"666666666666666666666666666666666666666666",
"666666666666666666666666666666666666666666",
"666666666666666666666666666666666666666666",
"666666666666666666666666666666666666666666",
"66666666****####66666666666666666666666666",
"66666666****####66666666666666666666666666",
"666666******##******666666666666##66666666",
"666666******##******666666666666##66666666",
"666666****************######6666##66666666",
"666666****************######6666##66666666",
"666666****##************####++++++++666666",
"666666****##************####++++++++666666",
"66666666**##**************####++++++666666",
"66666666**##**************####++++++666666",
"6666666666**####**####********######666666",
"6666666666**####**####********######666666",
"666666666666661111111111****####++++666666",
"666666666666661111111111****####++++666666",
"666666666666OO11OOOOOOOO11##**######666666",
"666666666666OO11OOOOOOOO11##**######666666",
"66666666666666----::::::11####++++++666666",
"66666666666666----::::::11####++++++666666",
"666666<<&&6666----11OOOO11::##1144++666666",
"666666<<&&6666----11OOOO11::##1144++666666",
"666666<<&&&&66----55555511::++444466666666",
"666666<<&&&&66----55555511::++444466666666",
"666666&&&&&&XX555555555555::::++++66666666",
"666666&&&&&&XX555555555555::::++++66666666",
"66666666&&ooXX5511115555551111::6666666666",
"66666666&&ooXX5511115555551111::6666666666",
"6666666666XX  ++555555551111::666666666666",
"6666666666XX  ++555555551111::666666666666",
"6666666666    ==..------%%>>>>33>>66666666",
"6666666666    ==..------%%>>>>33>>66666666",
"666666666666====$$..%%%%>>>>33>>3333666666",
"666666666666====$$..%%%%>>>>33>>3333666666",
"666666666666==,,$$33333333>>>>333333336666",
"666666666666==,,$$33333333>>>>333333336666",
"666666666666==,,,,$$33333333>>333333333366",
"666666666666==,,,,$$33333333>>333333333366",
"6666666611;;33,,,,,,$$333333>>33>>33333366",
"6666666611;;33,,,,,,$$333333>>33>>33333366",
"6666666611113333,,,,,,==$$55551133>>333366",
"6666666611113333,,,,,,==$$55551133>>333366",
"6666666611;;333333,,,,,,5555555533>>336666",
"6666666611;;333333,,,,,,5555555533>>336666",
"6666666666>>>>33333333==11555555++66666666",
"6666666666>>>>33333333==11555555++66666666",
"66666666666666>>>>>>>>>>>>5555  ++66666666",
"66666666666666>>>>>>>>>>>>5555  ++66666666",
"66666666666666  2222,,    @@      66666666",
"66666666666666  2222,,    @@      66666666",
"66666666666666@@,,==========66    66666666",
"66666666666666@@,,==========66    66666666",
"666666666666==@@,,,,,,,,,,==66666666666666",
"666666666666==@@,,,,,,,,,,==66666666666666",
"666666666666====@@,,,,,,,,,,  @@@@66666666",
"666666666666====@@,,,,,,,,,,  @@@@66666666",
"666666666666@@====@@,,,,,,,,  @@@@66666666",
"666666666666@@====@@,,,,,,,,  @@@@66666666",
"66666666666666    6666==,,==6666@@66666666",
"66666666666666    6666==,,==6666@@66666666",
"66666666666666++++666666666666666666666666",
"66666666666666++++666666666666666666666666",
"666666666666++++++666666666666666666666666",
"666666666666++++++666666666666666666666666"
};
