/* XPM */
static const char *runl_02[] = {
/* columns rows colors chars-per-pixel */
"42 66 26 1 ",
"  c magenta",
". c #8A583D",
"X c #613835",
"o c #452933",
"O c #E39C76",
"+ c #402018",
"@ c #A65A46",
"# c #C7795A",
"$ c #808274",
"% c #58594C",
"& c #FFC79C",
"* c #FFD1A4",
"= c #2B2B26",
"- c #3F3F37",
"; c #2E1A23",
": c #815646",
"> c #172D3B",
", c #245257",
"< c #418079",
"1 c #6EC09B",
"2 c #63403D",
"3 c #BD8259",
"4 c #B76A50",
"5 c #EBC678",
"6 c #543538",
"7 c white",
/* pixels */
"                                          ",
"                                          ",
"                                          ",
"                                          ",
"        ....XXXX                          ",
"        ....XXXX                          ",
"      ......XX......            XX        ",
"      ......XX......            XX        ",
"      ................XXXXXX    XX        ",
"      ................XXXXXX    XX        ",
"      ....XX............XXXXoooooooo      ",
"      ....XX............XXXXoooooooo      ",
"        ..XX..............XXXXoooooo      ",
"        ..XX..............XXXXoooooo      ",
"          ..XXXX..XXXX........XXXXXX      ",
"          ..XXXX..XXXX........XXXXXX      ",
"              OOOOOOOOOO....XXXXoooo      ",
"              OOOOOOOOOO....XXXXoooo      ",
"            ++OO++++++++OOXX..XXXXXX      ",
"            ++OO++++++++OOXX..XXXXXX      ",
"              @@@@######OOXXXXoooooo      ",
"              @@@@######OOXXXXoooooo      ",
"      $$%%    @@@@OO++++OO##XXOO&&oo      ",
"      $$%%    @@@@OO++++OO##XXOO&&oo      ",
"      $$%%%%  @@@@******OO##oo&&&&        ",
"      $$%%%%  @@@@******OO##oo&&&&        ",
"      %%%%%%==************####oooo        ",
"      %%%%%%==************####oooo        ",
"        %%--==**OOOO******OOOO##          ",
"        %%--==**OOOO******OOOO##          ",
"          ==;;oo********OOOO##            ",
"          ==;;oo********OOOO##            ",
"          ;;;;::>>@@@@@@,,<<<<11<<        ",
"          ;;;;::>>@@@@@@,,<<<<11<<        ",
"            ::::22>>,,,,<<<<11<<1111      ",
"            ::::22>>,,,,<<<<11<<1111      ",
"            ::332211111111<<<<11111111    ",
"            ::332211111111<<<<11111111    ",
"            ::33332211111111<<1111111111  ",
"            ::33332211111111<<1111111111  ",
"        OO441133333322111111<<11<<111111  ",
"        OO441133333322111111<<11<<111111  ",
"        OOOO1111333333::22****OO11<<1111  ",
"        OOOO1111333333::22****OO11<<1111  ",
"        OO44111111333333********11<<11    ",
"        OO44111111333333********11<<11    ",
"          <<<<11111111::OO******oo        ",
"          <<<<11111111::OO******oo        ",
"              <<<<<<<<<<<<****;;oo        ",
"              <<<<<<<<<<<<****;;oo        ",
"              ;;555533;;;;66;;;;;;        ",
"              ;;555533;;;;66;;;;;;        ",
"              6633::::::::::  ;;;;        ",
"              6633::::::::::  ;;;;        ",
"            ::663333333333::              ",
"            ::663333333333::              ",
"            ::::663333333333;;6666        ",
"            ::::663333333333;;6666        ",
"            66::::6633333333;;6666        ",
"            66::::6633333333;;6666        ",
"              ;;;;    ::33::    66        ",
"              ;;;;    ::33::    66        ",
"              oooo                        ",
"              oooo                        ",
"            oooooo                        ",
"            oooooo                        "
};
