/* XPM */
static const char *runl_05[] = {
/* columns rows colors chars-per-pixel */
"42 66 25 1 ",
"  c magenta",
". c #8A583D",
"X c #613835",
"o c #452933",
"O c #E39C76",
"+ c #402018",
"@ c #A65A46",
"# c #C7795A",
"$ c #FFC79C",
"% c #808274",
"& c #58594C",
"* c #FFD1A4",
"= c #3F3F37",
"- c #2E1A23",
"; c #815646",
": c #172D3B",
"> c #245257",
", c #418079",
"< c #63403D",
"1 c #6EC09B",
"2 c #BD8259",
"3 c #B76A50",
"4 c #EBC678",
"5 c #543538",
"6 c white",
/* pixels */
"                                          ",
"                                          ",
"                                          ",
"                                          ",
"        ....XX......XXXXXX                ",
"        ....XX......XXXXXX                ",
"      ....XX..........XXXXXXooooooXX      ",
"      ....XX..........XXXXXXooooooXX      ",
"      ....................XXXXXXoooo      ",
"      ....................XXXXXXoooo      ",
"        ..XXXXXX..XXXX..........XXXX      ",
"        ..XXXXXX..XXXX..........XXXX      ",
"          XXXXOOOOOOOOOO....XXXXoooo      ",
"          XXXXOOOOOOOOOO....XXXXoooo      ",
"            ++OO++++++++OOXX..XXXXXX      ",
"            ++OO++++++++OOXX..XXXXXX      ",
"              @@@@######OOXXXXoooooo      ",
"              @@@@######OOXXXXoooooo      ",
"              @@@@OO++++OO##XXOO$$oo      ",
"              @@@@OO++++OO##XXOO$$oo      ",
"        %%&&  @@@@******OO##oo$$$$        ",
"        %%&&  @@@@******OO##oo$$$$        ",
"        &&&&&&************####oooo        ",
"        &&&&&&************####oooo        ",
"          &&==**OOOO******OOOO##          ",
"          &&==**OOOO******OOOO##          ",
"          ==----********OOOO##            ",
"          ==----********OOOO##            ",
"            --;;::@@@@@@>>,,,,>>          ",
"            --;;::@@@@@@>>,,,,>>          ",
"            ;;<<::>>>>,,,,11,,,,>>        ",
"            ;;<<::>>>>,,,,11,,,,>>        ",
"            ;;22<<,,,,,,11,,11,,>>        ",
"            ;;22<<,,,,,,11,,11,,>>        ",
"          **OO**22<<,,111111,,,,>>>>      ",
"          **OO**22<<,,111111,,,,>>>>      ",
"        ********11111111111111,,>>>>      ",
"        ********11111111111111,,>>>>      ",
"        ********11,,11111111,,>>3333      ",
"        ********11,,11111111,,>>3333      ",
"          ****OO11,,11111122<<333333      ",
"          ****OO11,,11111122<<333333      ",
"            ,,,,,,,,;;;;;;;;oo  3333      ",
"            ,,,,,,,,;;;;;;;;oo  3333      ",
"              ,,,,,,,,,,,,,,--oo          ",
"              ,,,,,,,,,,,,,,--oo          ",
"              --444422----55----oo        ",
"              --444422----55----oo        ",
"            ;;55;;22;;;;;;;;------        ",
"            ;;55;;22;;;;;;;;------        ",
"            ;;;;5522222222;;  ----        ",
"            ;;;;5522222222;;  ----        ",
"            ;;;;;;5522222222              ",
"            ;;;;;;5522222222              ",
"              ;;55----222222;;            ",
"              ;;55----222222;;            ",
"                --oooo  222222            ",
"                --oooo  222222            ",
"                  oooo    ;;22;;          ",
"                  oooo    ;;22;;          ",
"                    oo      ----          ",
"                    oo      ----          ",
"                            5555          ",
"                            5555          ",
"                          555555          ",
"                          555555          "
};
