/* XPM */
static const char *runl_04[] = {
/* columns rows colors chars-per-pixel */
"42 66 25 1 ",
"  c magenta",
". c #8A583D",
"X c #613835",
"o c #452933",
"O c #E39C76",
"+ c #402018",
"@ c #A65A46",
"# c #C7795A",
"$ c #FFC79C",
"% c #FFD1A4",
"& c #808274",
"* c #58594C",
"= c #3F3F37",
"- c #2E1A23",
"; c #815646",
": c #172D3B",
"> c #245257",
", c #418079",
"< c #63403D",
"1 c #6EC09B",
"2 c #B76A50",
"3 c #BD8259",
"4 c #EBC678",
"5 c #543538",
"6 c white",
/* pixels */
"      ......  ....                        ",
"      ......  ....                        ",
"      ......XX......XXXXXX      XX        ",
"      ......XX......XXXXXX      XX        ",
"      ................XXXXXXoooooo        ",
"      ................XXXXXXoooooo        ",
"        ..XX..............XXXXXXoooo      ",
"        ..XX..............XXXXXXoooo      ",
"          XXXXXX..XXXX..........XXXX      ",
"          XXXXXX..XXXX..........XXXX      ",
"              OOOOOOOOOO....XXXXoooo      ",
"              OOOOOOOOOO....XXXXoooo      ",
"            ++OO++++++++OOXX..XXXXXX      ",
"            ++OO++++++++OOXX..XXXXXX      ",
"              @@@@######OOXXXXoooooo      ",
"              @@@@######OOXXXXoooooo      ",
"              @@@@OO++++OO##XXOO$$oo      ",
"              @@@@OO++++OO##XXOO$$oo      ",
"              @@@@%%%%%%OO##oo$$$$        ",
"              @@@@%%%%%%OO##oo$$$$        ",
"          &&**%%%%%%%%%%%%####oooo        ",
"          &&**%%%%%%%%%%%%####oooo        ",
"          **==%%OOOO%%%%%%OOOO##          ",
"          **==%%OOOO%%%%%%OOOO##          ",
"            ----%%%%%%%%OOOO##            ",
"            ----%%%%%%%%OOOO##            ",
"            --;;::@@@@>>,,,,>>>>          ",
"            --;;::@@@@>>,,,,>>>>          ",
"            ;;<<::>>>>,,,,,,,,>>>>        ",
"            ;;<<::>>>>,,,,,,,,>>>>        ",
"    %%OO%%  ;;<<,,,,11,,11,,,,>>>>>>      ",
"    %%OO%%  ;;<<,,,,11,,11,,,,>>>>>>      ",
"  %%%%%%%%11,,1111111111,,11,,>>222222    ",
"  %%%%%%%%11,,1111111111,,11,,>>222222    ",
"  %%%%%%%%11,,111111111111,,>>22222222    ",
"  %%%%%%%%11,,111111111111,,>>22222222    ",
"    %%%%1111,,1111111111,,,,>>22222222    ",
"    %%%%1111,,1111111111,,,,>>22222222    ",
"          ,,111111113333;;<<<<  2222      ",
"          ,,111111113333;;<<<<  2222      ",
"              ,,,,;;;;;;;;;;oo            ",
"              ,,,,;;;;;;;;;;oo            ",
"                ,,,,,,,,,,,,--            ",
"                ,,,,,,,,,,,,--            ",
"              --444433----55--oo          ",
"              --444433----55--oo          ",
"            ;;55;;33;;;;;;;;----          ",
"            ;;55;;33;;;;;;;;----          ",
"          ;;;;;;5533333333;;----          ",
"          ;;;;;;5533333333;;----          ",
"        ;;;;;;;;55553333333333            ",
"        ;;;;;;;;55553333333333            ",
"        ;;;;55        3333333333--5555    ",
"        ;;;;55        3333333333--5555    ",
"        ----            ;;3333;;--5555    ",
"        ----            ;;3333;;--5555    ",
"        oooo                        55    ",
"        oooo                        55    ",
"      oooooo                              ",
"      oooooo                              ",
"                                          ",
"                                          ",
"                                          ",
"                                          ",
"                                          ",
"                                          "
};
