/* XPM */
static const char *runl_00[] = {
/* columns rows colors chars-per-pixel */
"42 66 27 1 ",
"  c magenta",
". c #8A583D",
"X c #613835",
"o c #452933",
"O c #E39C76",
"+ c #402018",
"@ c #C7795A",
"# c #A65A46",
"$ c #FFC79C",
"% c #FFD1A4",
"& c #808274",
"* c #58594C",
"= c #2B2B26",
"- c #3F3F37",
"; c #2E1A23",
": c #815646",
"> c #172D3B",
", c #245257",
"< c #418079",
"1 c #6EC09B",
"2 c #63403D",
"3 c #B76A50",
"4 c #BD8259",
"5 c #244B57",
"6 c #EBC678",
"7 c #543538",
"8 c white",
/* pixels */
"        ......  ....                      ",
"        ......  ....                      ",
"        ......XX......XXXXXX      XX      ",
"        ......XX......XXXXXX      XX      ",
"        ................XXXXXXoooo        ",
"        ................XXXXXXoooo        ",
"          ..XX..............XXXXoooo      ",
"          ..XX..............XXXXoooo      ",
"            XXXXXX..XXXX........XXXX      ",
"            XXXXXX..XXXX........XXXX      ",
"              OOOOOOOOOOOO....XXXXoo      ",
"              OOOOOOOOOOOO....XXXXoo      ",
"            ++++OO++++++++OOXX..XXXX      ",
"            ++++OO++++++++OOXX..XXXX      ",
"              @@####@@@@@@OOXXXXoooo      ",
"              @@####@@@@@@OOXXXXoooo      ",
"              ++####OO++++OO@@XXOO$$      ",
"              ++####OO++++OO@@XXOO$$      ",
"              %%####%%%%%%OO@@oo$$$$      ",
"              %%####%%%%%%OO@@oo$$$$      ",
"      &&**    %%%%%%%%%%%%%%@@@@oo        ",
"      &&**    %%%%%%%%%%%%%%@@@@oo        ",
"      ******==%%%%OOOO%%%%%%OOOO          ",
"      ******==%%%%OOOO%%%%%%OOOO          ",
"        **--;;oo%%%%%%%%%%OOOO            ",
"        **--;;oo%%%%%%%%%%OOOO            ",
"          ;;;;::>>######,,<<<<11<<11      ",
"          ;;;;::>>######,,<<<<11<<11      ",
"OOOOOO    ;;::::22>>,,,,<<<<11<<11111111  ",
"OOOOOO    ;;::::22>>,,,,<<<<11<<11111111  ",
"OOOOOO33    ::444422111111<<<<111111111111",
"OOOOOO33    ::444422111111<<<<111111111111",
"OOOO333355<<1144444422111111<<<<1111111111",
"OOOO333355<<1144444422111111<<<<1111111111",
"OOOO33<<55<<1111444444221111<<<<1111<<<<<<",
"OOOO33<<55<<1111444444221111<<<<1111<<<<<<",
"  <<<<55<<<<111111444444::222222  11111111",
"  <<<<55<<<<111111444444::222222  11111111",
"      <<<<<<11111111444444::::    %%%%%%OO",
"      <<<<<<11111111444444::::    %%%%%%OO",
"            <<1111111111::::;;oo  OO%%%%%%",
"            <<1111111111::::;;oo  OO%%%%%%",
"              <<<<<<<<<<<<<<;;;;oo%%%%%%  ",
"              <<<<<<<<<<<<<<;;;;oo%%%%%%  ",
"              ;;6644;;;;7777;;;;;;        ",
"              ;;6644;;;;7777;;;;;;        ",
"              ::44::::::::::  ;;;;        ",
"              ::44::::::::::  ;;;;        ",
"            4444444444::7777              ",
"            4444444444::7777              ",
"          44444444::77777777              ",
"          44444444::77777777              ",
"          4444::      ::::::::;;oooo      ",
"          4444::      ::::::::;;oooo      ",
"          ;;;;          77::77;;oooo      ",
"          ;;;;          77::77;;oooo      ",
"          7777                    oo      ",
"          7777                    oo      ",
"        777777                            ",
"        777777                            ",
"                                          ",
"                                          ",
"                                          ",
"                                          ",
"                                          ",
"                                          "
};
