/* XPM */
static const char *landing_left[] = {
/* columns rows colors chars-per-pixel */
"40 70 26 1 ",
"  c #2E1A23",
". c #172D3B",
"X c #2B2B26",
"o c #3F3F37",
"O c #402018",
"+ c #452933",
"@ c #543538",
"# c #613835",
"$ c #63403D",
"% c #244B57",
"& c #245257",
"* c #58594C",
"= c #8A583D",
"- c #815646",
"; c #A65A46",
": c #B76A50",
"> c #C7795A",
", c #418079",
"< c #BD8259",
"1 c #808274",
"2 c #E39C76",
"3 c #EBC678",
"4 c magenta",
"5 c #6EC09B",
"6 c #FFC79C",
"7 c #FFD1A4",
/* pixels */
"44444444====######4444444444444444444444",
"44444444====######4444444444444444444444",
"444444======##========4444444444##444444",
"444444======##========4444444444##444444",
"444444================######4444##444444",
"444444================######4444##444444",
"44444444==##============####++++++444444",
"44444444==##============####++++++444444",
"44444444==##==============####++++444444",
"44444444==##==============####++++444444",
"4444444444==####==####========####444444",
"4444444444==####==####========####444444",
"444444444444222222222222====####++444444",
"444444444444222222222222====####++444444",
"4444444444OOOO22OOOOOOOO22##==####444444",
"4444444444OOOO22OOOOOOOO22##==####444444",
"444444444444>>;;;;>>>>>>22####++++444444",
"444444444444>>;;;;>>>>>>22####++++444444",
"4411**444444OO;;;;22OOOO22>>##2266444444",
"4411**444444OO;;;;22OOOO22>>##2266444444",
"44******444477;;;;77777722>>++6666444444",
"44******444477;;;;77777722>>++6666444444",
"4444**ooXXoo77777777777777>>>>++44444444",
"4444**ooXXoo77777777777777>>>>++44444444",
"444444XXoo  7777222277777722224444444444",
"444444XXoo  7777222277777722224444444444",
"444444oo    ++777777777722,,55,,55555544",
"444444oo    ++777777777722,,55,,55555544",
"44444444,,----..;;;;&&&&,,55,,5555555555",
"44444444,,----..;;;;&&&&,,55,,5555555555",
"4444%%,,,,<<<<$$..&&,,,,,,55,,55,,,,,,55",
"4444%%,,,,<<<<$$..&&,,,,,,55,,55,,,,,,55",
"44,,,,%%,,<<<<<<$$55555555,,55,,555555,,",
"44,,,,%%,,<<<<<<$$55555555,,55,,555555,,",
"2222::,,%%55<<<<<<$$,,5555,,444477772255",
"2222::,,%%55<<<<<<$$,,5555,,444477772255",
"22::::22%%5555<<<<<<$$$$$$,,4477777777,,",
"22::::22%%5555<<<<<<$$$$$$,,4477777777,,",
"::22222244,,5555<<<<<<------442277777744",
"::22222244,,5555<<<<<<------442277777744",
"44222244444455555555------$$++4477774444",
"44222244444455555555------$$++4477774444",
"444444444444,,55555555,,,,    ++44444444",
"444444444444,,55555555,,,,    ++44444444",
"444444444444&&,,,,,,,,&&&&      44444444",
"444444444444&&,,,,,,,,&&&&      44444444",
"444444444444  33<<--<<<<@@44    44444444",
"444444444444  33<<--<<<<@@44    44444444",
"444444444444@@@@--<<<<<<--44444444444444",
"444444444444@@@@--<<<<<<--44444444444444",
"4444444444@@--@@<<<<<<<<<<44444444444444",
"4444444444@@--@@<<<<<<<<<<44444444444444",
"4444444444------<<<<<<<<<<44444444444444",
"4444444444------<<<<<<<<<<44444444444444",
"4444444444------<<<<<<<<<<44444444444444",
"4444444444------<<<<<<<<<<44444444444444",
"44444444@@----@@--<<<<<<--44444444444444",
"44444444@@----@@--<<<<<<--44444444444444",
"44444444------@@44    --4444444444444444",
"44444444------@@44    --4444444444444444",
"44444444------4444@@@@444444444444444444",
"44444444------4444@@@@444444444444444444",
"44444444@@--@@4444@@@@444444444444444444",
"44444444@@--@@4444@@@@444444444444444444",
"44444444    4444444444444444444444444444",
"44444444    4444444444444444444444444444",
"44444444++++4444444444444444444444444444",
"44444444++++4444444444444444444444444444",
"444444++++++4444444444444444444444444444",
"444444++++++4444444444444444444444444444"
};
