/* XPM */
static const char *landing[] = {
/* columns rows colors chars-per-pixel */
"40 70 26 1 ",
"  c #2E1A23",
". c #172D3B",
"X c #2B2B26",
"o c #3F3F37",
"O c #402018",
"+ c #452933",
"@ c #543538",
"# c #613835",
"$ c #63403D",
"% c #244B57",
"& c #245257",
"* c #58594C",
"= c #8A583D",
"- c #815646",
"; c #A65A46",
": c #B76A50",
"> c #C7795A",
", c #418079",
"< c #BD8259",
"1 c #808274",
"2 c #E39C76",
"3 c #EBC678",
"4 c magenta",
"5 c #6EC09B",
"6 c #FFC79C",
"7 c #FFD1A4",
/* pixels */
"4444444444444444444444######====44444444",
"4444444444444444444444######====44444444",
"444444##4444444444========##======444444",
"444444##4444444444========##======444444",
"444444##4444######================444444",
"444444##4444######================444444",
"444444++++++####============##==44444444",
"444444++++++####============##==44444444",
"444444++++####==============##==44444444",
"444444++++####==============##==44444444",
"444444####========####==####==4444444444",
"444444####========####==####==4444444444",
"444444++####====222222222222444444444444",
"444444++####====222222222222444444444444",
"444444####==##22OOOOOOOO22OOOO4444444444",
"444444####==##22OOOOOOOO22OOOO4444444444",
"444444++++####22>>>>>>;;;;>>444444444444",
"444444++++####22>>>>>>;;;;>>444444444444",
"4444446622##>>22OOOO22;;;;OO444444**1144",
"4444446622##>>22OOOO22;;;;OO444444**1144",
"4444446666++>>22777777;;;;774444******44",
"4444446666++>>22777777;;;;774444******44",
"44444444++>>>>77777777777777ooXXoo**4444",
"44444444++>>>>77777777777777ooXXoo**4444",
"4444444444222277777722227777  ooXX444444",
"4444444444222277777722227777  ooXX444444",
"44555555,,55,,227777777777++    oo444444",
"44555555,,55,,227777777777++    oo444444",
"5555555555,,55,,&&&&;;;;..----,,44444444",
"5555555555,,55,,&&&&;;;;..----,,44444444",
"55,,,,,,55,,55,,,,,,&&..$$<<<<,,,,%%4444",
"55,,,,,,55,,55,,,,,,&&..$$<<<<,,,,%%4444",
",,555555,,55,,55555555$$<<<<<<,,%%,,,,44",
",,555555,,55,,55555555$$<<<<<<,,%%,,,,44",
"552277774444,,5555,,$$<<<<<<55%%,,::2222",
"552277774444,,5555,,$$<<<<<<55%%,,::2222",
",,7777777744,,$$$$$$<<<<<<5555%%22::::22",
",,7777777744,,$$$$$$<<<<<<5555%%22::::22",
"447777772244------<<<<<<5555,,44222222::",
"447777772244------<<<<<<5555,,44222222::",
"4444777744++$$------55555555444444222244",
"4444777744++$$------55555555444444222244",
"44444444++    ,,,,55555555,,444444444444",
"44444444++    ,,,,55555555,,444444444444",
"44444444      &&&&,,,,,,,,&&444444444444",
"44444444      &&&&,,,,,,,,&&444444444444",
"44444444    44@@<<<<--<<33  444444444444",
"44444444    44@@<<<<--<<33  444444444444",
"44444444444444--<<<<<<--@@@@444444444444",
"44444444444444--<<<<<<--@@@@444444444444",
"44444444444444<<<<<<<<<<@@--@@4444444444",
"44444444444444<<<<<<<<<<@@--@@4444444444",
"44444444444444<<<<<<<<<<------4444444444",
"44444444444444<<<<<<<<<<------4444444444",
"44444444444444<<<<<<<<<<------4444444444",
"44444444444444<<<<<<<<<<------4444444444",
"44444444444444--<<<<<<--@@----@@44444444",
"44444444444444--<<<<<<--@@----@@44444444",
"4444444444444444--    44@@------44444444",
"4444444444444444--    44@@------44444444",
"444444444444444444@@@@4444------44444444",
"444444444444444444@@@@4444------44444444",
"444444444444444444@@@@4444@@--@@44444444",
"444444444444444444@@@@4444@@--@@44444444",
"4444444444444444444444444444    44444444",
"4444444444444444444444444444    44444444",
"4444444444444444444444444444++++44444444",
"4444444444444444444444444444++++44444444",
"4444444444444444444444444444++++++444444",
"4444444444444444444444444444++++++444444"
};
