/* XPM */
static char *dd76ea509151477fb55424eaaa172bd6rMASgA4fvgqEdMvf[] = {
/* columns rows colors chars-per-pixel */
"40 70 26 1 ",
"  c None",
". c #2E1A23",
"X c #172D3B",
"o c #2B2B26",
"O c #3F3F37",
"+ c #402018",
"@ c #452933",
"# c #543538",
"$ c #613835",
"% c #63403D",
"& c #244B57",
"* c #245257",
"= c #58594C",
"- c #8A583D",
"; c #815646",
": c #A65A46",
"> c #B76A50",
", c #C7795A",
"< c #418079",
"1 c #BD8259",
"2 c #808274",
"3 c #E39C76",
"4 c #EBC678",
"5 c #6EC09B",
"6 c #FFC79C",
"7 c #FFD1A4",
/* pixels */
"                      $$$$$$----        ",
"                      $$$$$$----        ",
"      $$          --------$$------      ",
"      $$          --------$$------      ",
"      $$    $$$$$$----------------      ",
"      $$    $$$$$$----------------      ",
"      @@@@@@$$$$------------$$--        ",
"      @@@@@@$$$$------------$$--        ",
"      @@@@$$$$--------------$$--        ",
"      @@@@$$$$--------------$$--        ",
"      $$$$--------$$$$--$$$$--          ",
"      $$$$--------$$$$--$$$$--          ",
"      @@$$$$----333333333333            ",
"      @@$$$$----333333333333            ",
"      $$$$--$$33++++++++33++++          ",
"      $$$$--$$33++++++++33++++          ",
"      @@@@$$$$33,,,,,,::::,,            ",
"      @@@@$$$$33,,,,,,::::,,            ",
"      6633$$,,33++++33::::++      ==22  ",
"      6633$$,,33++++33::::++      ==22  ",
"      6666@@,,33777777::::77    ======  ",
"      6666@@,,33777777::::77    ======  ",
"        @@,,,,77777777777777OOooOO==    ",
"        @@,,,,77777777777777OOooOO==    ",
"          333377777733337777..OOoo      ",
"          333377777733337777..OOoo      ",
"  555555<<55<<337777777777@@....OO      ",
"  555555<<55<<337777777777@@....OO      ",
"5555555555<<55<<****::::XX;;;;<<        ",
"5555555555<<55<<****::::XX;;;;<<        ",
"55<<<<<<55<<55<<<<<<**XX%%1111<<<<&&    ",
"55<<<<<<55<<55<<<<<<**XX%%1111<<<<&&    ",
"<<555555<<55<<55555555%%111111<<&&<<<<  ",
"<<555555<<55<<55555555%%111111<<&&<<<<  ",
"55337777    <<5555<<%%11111155&&<<>>3333",
"55337777    <<5555<<%%11111155&&<<>>3333",
"<<77777777  <<%%%%%%1111115555&&33>>>>33",
"<<77777777  <<%%%%%%1111115555&&33>>>>33",
"  77777733  ;;;;;;1111115555<<  333333>>",
"  77777733  ;;;;;;1111115555<<  333333>>",
"    7777  @@%%;;;;;;55555555      3333  ",
"    7777  @@%%;;;;;;55555555      3333  ",
"        @@....<<<<55555555<<            ",
"        @@....<<<<55555555<<            ",
"        ......****<<<<<<<<**            ",
"        ......****<<<<<<<<**            ",
"        ....  ##1111;;1144..            ",
"        ....  ##1111;;1144..            ",
"              ;;111111;;####            ",
"              ;;111111;;####            ",
"              1111111111##;;##          ",
"              1111111111##;;##          ",
"              1111111111;;;;;;          ",
"              1111111111;;;;;;          ",
"              1111111111;;;;;;          ",
"              1111111111;;;;;;          ",
"              ;;111111;;##;;;;##        ",
"              ;;111111;;##;;;;##        ",
"                ;;....  ##;;;;;;        ",
"                ;;....  ##;;;;;;        ",
"                  ####    ;;;;;;        ",
"                  ####    ;;;;;;        ",
"                  ####    ##;;##        ",
"                  ####    ##;;##        ",
"                            ....        ",
"                            ....        ",
"                            @@@@        ",
"                            @@@@        ",
"                            @@@@@@      ",
"                            @@@@@@      "
};
