/* XPM */
static char *_0967d4a69f041768328f13764663bfb7Vaao3Kea8f2RQJH[] = {
/* columns rows colors chars-per-pixel */
"40 70 26 1 ",
"  c None",
". c #2E1A23",
"X c #172D3B",
"o c #2B2B26",
"O c #3F3F37",
"+ c #402018",
"@ c #452933",
"# c #543538",
"$ c #613835",
"% c #63403D",
"& c #244B57",
"* c #245257",
"= c #58594C",
"- c #8A583D",
"; c #815646",
": c #A65A46",
"> c #B76A50",
", c #C7795A",
"< c #418079",
"1 c #BD8259",
"2 c #808274",
"3 c #E39C76",
"4 c #EBC678",
"5 c #6EC09B",
"6 c #FFC79C",
"7 c #FFD1A4",
/* pixels */
"        ----$$$$$$                      ",
"        ----$$$$$$                      ",
"      ------$$--------          $$      ",
"      ------$$--------          $$      ",
"      ----------------$$$$$$    $$      ",
"      ----------------$$$$$$    $$      ",
"        --$$------------$$$$@@@@@@      ",
"        --$$------------$$$$@@@@@@      ",
"        --$$--------------$$$$@@@@      ",
"        --$$--------------$$$$@@@@      ",
"          --$$$$--$$$$--------$$$$      ",
"          --$$$$--$$$$--------$$$$      ",
"            333333333333----$$$$@@      ",
"            333333333333----$$$$@@      ",
"          ++++33++++++++33$$--$$$$      ",
"          ++++33++++++++33$$--$$$$      ",
"            ,,::::,,,,,,33$$$$@@@@      ",
"            ,,::::,,,,,,33$$$$@@@@      ",
"  22==      ++::::33++++33,,$$3366      ",
"  22==      ++::::33++++33,,$$3366      ",
"  ======    77::::77777733,,@@6666      ",
"  ======    77::::77777733,,@@6666      ",
"    ==OOooOO77777777777777,,,,@@        ",
"    ==OOooOO77777777777777,,,,@@        ",
"      ooOO..777733337777773333          ",
"      ooOO..777733337777773333          ",
"      OO....@@777777777733<<55<<555555  ",
"      OO....@@777777777733<<55<<555555  ",
"        <<;;;;XX::::****<<55<<5555555555",
"        <<;;;;XX::::****<<55<<5555555555",
"    &&<<<<1111%%XX**<<<<<<55<<55<<<<<<55",
"    &&<<<<1111%%XX**<<<<<<55<<55<<<<<<55",
"  <<<<&&<<111111%%55555555<<55<<555555<<",
"  <<<<&&<<111111%%55555555<<55<<555555<<",
"3333>><<&&55111111%%<<5555<<    77773355",
"3333>><<&&55111111%%<<5555<<    77773355",
"33>>>>33&&5555111111%%%%%%<<  77777777<<",
"33>>>>33&&5555111111%%%%%%<<  77777777<<",
">>333333  <<5555111111;;;;;;  33777777  ",
">>333333  <<5555111111;;;;;;  33777777  ",
"  3333      55555555;;;;;;%%@@  7777    ",
"  3333      55555555;;;;;;%%@@  7777    ",
"            <<55555555<<<<....@@        ",
"            <<55555555<<<<....@@        ",
"            **<<<<<<<<****......        ",
"            **<<<<<<<<****......        ",
"            ..4411;;1111##  ....        ",
"            ..4411;;1111##  ....        ",
"            ####;;111111;;              ",
"            ####;;111111;;              ",
"          ##;;##1111111111              ",
"          ##;;##1111111111              ",
"          ;;;;;;1111111111              ",
"          ;;;;;;1111111111              ",
"          ;;;;;;1111111111              ",
"          ;;;;;;1111111111              ",
"        ##;;;;##;;111111;;              ",
"        ##;;;;##;;111111;;              ",
"        ;;;;;;##  ....;;                ",
"        ;;;;;;##  ....;;                ",
"        ;;;;;;    ####                  ",
"        ;;;;;;    ####                  ",
"        ##;;##    ####                  ",
"        ##;;##    ####                  ",
"        ....                            ",
"        ....                            ",
"        @@@@                            ",
"        @@@@                            ",
"      @@@@@@                            ",
"      @@@@@@                            "
};
