/* XPM */
static const char *runr_02[] = {
/* columns rows colors chars-per-pixel */
"42 66 25 1 ",
"  c magenta",
". c #613835",
"X c #8A583D",
"o c #452933",
"O c #E39C76",
"+ c #402018",
"@ c #C7795A",
"# c #A65A46",
"$ c #FFC79C",
"% c #FFD1A4",
"& c #58594C",
"* c #808274",
"= c #3F3F37",
"- c #2E1A23",
"; c #245257",
": c #418079",
"> c #172D3B",
", c #815646",
"< c #6EC09B",
"1 c #63403D",
"2 c #BD8259",
"3 c #B76A50",
"4 c #543538",
"5 c #EBC678",
"6 c white",
/* pixels */
"                                          ",
"                                          ",
"                                          ",
"                                          ",
"                ......XXXXXX..XXXX        ",
"                ......XXXXXX..XXXX        ",
"      ..oooooo......XXXXXXXXXX..XXXX      ",
"      ..oooooo......XXXXXXXXXX..XXXX      ",
"      oooo......XXXXXXXXXXXXXXXXXXXX      ",
"      oooo......XXXXXXXXXXXXXXXXXXXX      ",
"      ....XXXXXXXXXX....XX......XX        ",
"      ....XXXXXXXXXX....XX......XX        ",
"      oooo....XXXXOOOOOOOOOO....          ",
"      oooo....XXXXOOOOOOOOOO....          ",
"      ......XX..OO++++++++OO++            ",
"      ......XX..OO++++++++OO++            ",
"      oooooo....OO@@@@@@####              ",
"      oooooo....OO@@@@@@####              ",
"      oo$$OO..@@OO++++OO####              ",
"      oo$$OO..@@OO++++OO####              ",
"        $$$$oo@@OO%%%%%%####  &&**        ",
"        $$$$oo@@OO%%%%%%####  &&**        ",
"        oooo@@@@%%%%%%%%%%%%&&&&&&        ",
"        oooo@@@@%%%%%%%%%%%%&&&&&&        ",
"          @@OOOO%%%%%%OOOO%%==&&          ",
"          @@OOOO%%%%%%OOOO%%==&&          ",
"            @@OOOO%%%%%%%%----==          ",
"            @@OOOO%%%%%%%%----==          ",
"          ;;::::;;######>>,,--            ",
"          ;;::::;;######>>,,--            ",
"        ;;::::<<::::;;;;>>11,,            ",
"        ;;::::<<::::;;;;>>11,,            ",
"        ;;::<<::<<::::::1122,,            ",
"        ;;::<<::<<::::::1122,,            ",
"      ;;;;::::<<<<<<::1122%%OO%%          ",
"      ;;;;::::<<<<<<::1122%%OO%%          ",
"      ;;;;::<<<<<<<<<<<<<<%%%%%%%%        ",
"      ;;;;::<<<<<<<<<<<<<<%%%%%%%%        ",
"      3333;;::<<<<<<<<::<<%%%%%%%%        ",
"      3333;;::<<<<<<<<::<<%%%%%%%%        ",
"      3333331122<<<<<<::<<OO%%%%          ",
"      3333331122<<<<<<::<<OO%%%%          ",
"      3333  oo,,,,,,,,::::::::            ",
"      3333  oo,,,,,,,,::::::::            ",
"          oo--::::::::::::::              ",
"          oo--::::::::::::::              ",
"        oo----44----225555--              ",
"        oo----44----225555--              ",
"        ------,,,,,,,,22,,44,,            ",
"        ------,,,,,,,,22,,44,,            ",
"        ----  ,,2222222244,,,,            ",
"        ----  ,,2222222244,,,,            ",
"              2222222244,,,,,,            ",
"              2222222244,,,,,,            ",
"            ,,222222----44,,              ",
"            ,,222222----44,,              ",
"            222222  oooo--                ",
"            222222  oooo--                ",
"          ,,22,,    oooo                  ",
"          ,,22,,    oooo                  ",
"          ----      oo                    ",
"          ----      oo                    ",
"          4444                            ",
"          4444                            ",
"          444444                          ",
"          444444                          "
};
