/* XPM */
static const char *runr_01[] = {
/* columns rows colors chars-per-pixel */
"42 66 26 1 ",
"  c magenta",
". c #613835",
"X c #8A583D",
"o c #452933",
"O c #E39C76",
"+ c #402018",
"@ c #C7795A",
"# c #A65A46",
"$ c #FFC79C",
"% c #FFD1A4",
"& c #58594C",
"* c #808274",
"= c #2B2B26",
"- c #2E1A23",
"; c #3F3F37",
": c #6EC09B",
"> c #418079",
", c #245257",
"< c #172D3B",
"1 c #815646",
"2 c #63403D",
"3 c #BD8259",
"4 c #B76A50",
"5 c #543538",
"6 c #EBC678",
"7 c white",
/* pixels */
"                                          ",
"                                          ",
"                                          ",
"                                          ",
"                        ....XXXX          ",
"                        ....XXXX          ",
"      ..            XXXXXX..XXXXXX        ",
"      ..            XXXXXX..XXXXXX        ",
"      ..    ......XXXXXXXXXXXXXXXX        ",
"      ..    ......XXXXXXXXXXXXXXXX        ",
"      oooooo....XXXXXXXXXXXX..XXXX        ",
"      oooooo....XXXXXXXXXXXX..XXXX        ",
"      oooo....XXXXXXXXXXXXXX..XX          ",
"      oooo....XXXXXXXXXXXXXX..XX          ",
"      ....XXXXXXXX....XX....XX            ",
"      ....XXXXXXXX....XX....XX            ",
"      oo....XXXXOOOOOOOOOOOO              ",
"      oo....XXXXOOOOOOOOOOOO              ",
"      ....XX..OO++++++++OO++++            ",
"      ....XX..OO++++++++OO++++            ",
"      oooo....OO@@@@@@####@@              ",
"      oooo....OO@@@@@@####@@              ",
"      $$OO..@@OO++++OO####++              ",
"      $$OO..@@OO++++OO####++              ",
"      $$$$oo@@OO%%%%%%####%%              ",
"      $$$$oo@@OO%%%%%%####%%              ",
"        oo@@@@%%%%%%%%%%%%%%    &&**      ",
"        oo@@@@%%%%%%%%%%%%%%    &&**      ",
"          OOOO%%%%%%OOOO%%%%==&&&&&&      ",
"          OOOO%%%%%%OOOO%%%%==&&&&&&      ",
"            OOOO%%%%%%%%%%oo--;;&&        ",
"            OOOO%%%%%%%%%%oo--;;&&        ",
"        ::>>>>>>,,######<<11----          ",
"        ::>>>>>>,,######<<11----          ",
"      ::>>::>>>>>>,,,,<<221111            ",
"      ::>>::>>>>>>,,,,<<221111            ",
"    ::::::>>>>>>::::::22333311            ",
"    ::::::>>>>>>::::::22333311            ",
"  ::::::::>>>>::::::22333333::  OOOOOO    ",
"  ::::::::>>>>::::::22333333::  OOOOOO    ",
"  ::::>>::>>>>::::22333333::::44OOOOOO    ",
"  ::::>>::>>>>::::22333333::::44OOOOOO    ",
"  ::>>::OO%%%%2222333333::::::444444OO    ",
"  ::>>::OO%%%%2222333333::::::444444OO    ",
"    >>::%%%%%%%%113333::::::::>>44OOOO    ",
"    >>::%%%%%%%%113333::::::::>>44OOOO    ",
"        %%%%%%OO1111::::::::>>>>>>        ",
"        %%%%%%OO1111::::::::>>>>>>        ",
"        oo%%%%>>>>>>>>>>>>>>              ",
"        oo%%%%>>>>>>>>>>>>>>              ",
"        ------55----336666--              ",
"        ------55----336666--              ",
"        ----  11111111113311              ",
"        ----  11111111113311              ",
"              55113333333333              ",
"              55113333333333              ",
"        oooo--55555511333333              ",
"        oooo--55555511333333              ",
"        oooo--11111155333311              ",
"        oooo--11111155333311              ",
"        oo    551155  ----                ",
"        oo    551155  ----                ",
"                      5555                ",
"                      5555                ",
"                      555555              ",
"                      555555              "
};
