/* XPM */
static const char *runr_00[] = {
/* columns rows colors chars-per-pixel */
"42 66 27 1 ",
"  c magenta",
". c #613835",
"X c #8A583D",
"o c #452933",
"O c #E39C76",
"+ c #402018",
"@ c #C7795A",
"# c #A65A46",
"$ c #FFC79C",
"% c #FFD1A4",
"& c #58594C",
"* c #808274",
"= c #2B2B26",
"- c #2E1A23",
"; c #3F3F37",
": c #418079",
"> c #6EC09B",
", c #245257",
"< c #172D3B",
"1 c #815646",
"2 c #63403D",
"3 c #BD8259",
"4 c #244B57",
"5 c #B76A50",
"6 c #543538",
"7 c #EBC678",
"8 c white",
/* pixels */
"                        ....XXXX          ",
"                        ....XXXX          ",
"      ..            XXXXXX..XXXXXX        ",
"      ..            XXXXXX..XXXXXX        ",
"      ..    ......XXXXXXXXXXXXXXXX        ",
"      ..    ......XXXXXXXXXXXXXXXX        ",
"      oooooo....XXXXXXXXXXXX..XXXX        ",
"      oooooo....XXXXXXXXXXXX..XXXX        ",
"      oooo....XXXXXXXXXXXXXX..XX          ",
"      oooo....XXXXXXXXXXXXXX..XX          ",
"      ....XXXXXXXX....XX....XX            ",
"      ....XXXXXXXX....XX....XX            ",
"      oo....XXXXOOOOOOOOOOOO              ",
"      oo....XXXXOOOOOOOOOOOO              ",
"      ....XX..OO++++++++OO++++            ",
"      ....XX..OO++++++++OO++++            ",
"      oooo....OO@@@@@@####@@              ",
"      oooo....OO@@@@@@####@@              ",
"      $$OO..@@OO++++OO####++              ",
"      $$OO..@@OO++++OO####++              ",
"      $$$$oo@@OO%%%%%%####%%    &&**      ",
"      $$$$oo@@OO%%%%%%####%%    &&**      ",
"        oo@@@@%%%%%%%%%%%%%%==&&&&&&      ",
"        oo@@@@%%%%%%%%%%%%%%==&&&&&&      ",
"          OOOO%%%%%%OOOO%%%%--;;&&        ",
"          OOOO%%%%%%OOOO%%%%--;;&&        ",
"            OOOO%%%%%%%%%%------          ",
"            OOOO%%%%%%%%%%------          ",
"      ::>>::::::,,######<<11--            ",
"      ::>>::::::,,######<<11--            ",
"  >>>>>>::>>::::::,,,,<<221111            ",
"  >>>>>>::>>::::::,,,,<<221111            ",
">>>>>>>>>>::::::>>>>>>22333311      OOOOOO",
">>>>>>>>>>::::::>>>>>>22333311      OOOOOO",
">>>>>>>>>>::::>>>>>>22333333>>  4455OOOOOO",
">>>>>>>>>>::::>>>>>>22333333>>  4455OOOOOO",
"::::::>>>>::::>>>>22333333>>>>::445555OOOO",
"::::::>>>>::::>>>>22333333>>>>::445555OOOO",
">>>>>>>>  ::::2222333333>>>>>>::44::55OOOO",
">>>>>>>>  ::::2222333333>>>>>>::44::55OOOO",
"  OO%%%%%%oo1111333333>>>>>>>>::::44::    ",
"  OO%%%%%%oo1111333333>>>>>>>>::::44::    ",
"  %%%%%%OO----111111>>>>>>>>::::::::      ",
"  %%%%%%OO----111111>>>>>>>>::::::::      ",
"    %%%%%%----::::::::::::::              ",
"    %%%%%%----::::::::::::::              ",
"        ----  6666----3377--              ",
"        ----  6666----3377--              ",
"              11111111113311              ",
"              11111111113311              ",
"              66661133333333              ",
"              66661133333333              ",
"        oo--  6666661133333333            ",
"        oo--  6666661133333333            ",
"      oooo--111111666633333333            ",
"      oooo--111111666633333333            ",
"      oo  6611111111    11333311          ",
"      oo  6611111111    11333311          ",
"            661166        333333          ",
"            661166        333333          ",
"                          11----          ",
"                          11----          ",
"                            --6666        ",
"                            --6666        ",
"                            6666          ",
"                            6666          "
};
