/* XPM */
static const char *runr_07[] = {
/* columns rows colors chars-per-pixel */
"42 66 27 1 ",
"  c magenta",
". c #8A583D",
"X c #613835",
"o c #452933",
"O c #E39C76",
"+ c #402018",
"@ c #C7795A",
"# c #A65A46",
"$ c #FFC79C",
"% c #FFD1A4",
"& c #58594C",
"* c #808274",
"= c #2B2B26",
"- c #2E1A23",
"; c #3F3F37",
": c #6EC09B",
"> c #418079",
", c #245257",
"< c #172D3B",
"1 c #815646",
"2 c #63403D",
"3 c #BD8259",
"4 c #B76A50",
"5 c #244B57",
"6 c #543538",
"7 c #EBC678",
"8 c white",
/* pixels */
"                      ....  ......        ",
"                      ....  ......        ",
"      XX      XXXXXX......XX......        ",
"      XX      XXXXXX......XX......        ",
"        ooooXXXXXX................        ",
"        ooooXXXXXX................        ",
"      ooooXXXX..............XX..          ",
"      ooooXXXX..............XX..          ",
"      XXXX........XXXX..XXXXXX            ",
"      XXXX........XXXX..XXXXXX            ",
"      ooXXXX....OOOOOOOOOOOO              ",
"      ooXXXX....OOOOOOOOOOOO              ",
"      XXXX..XXOO++++++++OO++++            ",
"      XXXX..XXOO++++++++OO++++            ",
"      ooooXXXXOO@@@@@@####@@              ",
"      ooooXXXXOO@@@@@@####@@              ",
"      $$OOXX@@OO++++OO####++              ",
"      $$OOXX@@OO++++OO####++              ",
"      $$$$oo@@OO%%%%%%####%%              ",
"      $$$$oo@@OO%%%%%%####%%              ",
"        oo@@@@%%%%%%%%%%%%%%    &&**      ",
"        oo@@@@%%%%%%%%%%%%%%    &&**      ",
"          OOOO%%%%%%OOOO%%%%==&&&&&&      ",
"          OOOO%%%%%%OOOO%%%%==&&&&&&      ",
"            OOOO%%%%%%%%%%oo--;;&&        ",
"            OOOO%%%%%%%%%%oo--;;&&        ",
"      ::>>::>>>>,,######<<11----          ",
"      ::>>::>>>>,,######<<11----          ",
"  ::::::::>>::>>>>,,,,<<221111--    OOOOOO",
"  ::::::::>>::>>>>,,,,<<221111--    OOOOOO",
"::::::::::::>>>>::::::22333311    44OOOOOO",
"::::::::::::>>>>::::::22333311    44OOOOOO",
"::::::::::>>>>::::::22333333::>>554444OOOO",
"::::::::::>>>>::::::22333333::>>554444OOOO",
">>>>>>::::>>>>::::22333333::::>>55>>44OOOO",
">>>>>>::::>>>>::::22333333::::>>55>>44OOOO",
"::::::::  22222211333333::::::>>>>55>>>>  ",
"::::::::  22222211333333::::::>>>>55>>>>  ",
"OO%%%%%%    1111333333::::::::>>>>>>      ",
"OO%%%%%%    1111333333::::::::>>>>>>      ",
"%%%%%%OO  oo--1111::::::::::>>            ",
"%%%%%%OO  oo--1111::::::::::>>            ",
"  %%%%%%oo---->>>>>>>>>>>>>>              ",
"  %%%%%%oo---->>>>>>>>>>>>>>              ",
"        ------6666----3377--              ",
"        ------6666----3377--              ",
"        ----  11111111113311              ",
"        ----  11111111113311              ",
"              6666113333333333            ",
"              6666113333333333            ",
"              666666661133333333          ",
"              666666661133333333          ",
"      oooo--11111111      113333          ",
"      oooo--11111111      113333          ",
"      oooo--661166          ----          ",
"      oooo--661166          ----          ",
"      oo                    6666          ",
"      oo                    6666          ",
"                            666666        ",
"                            666666        ",
"                                          ",
"                                          ",
"                                          ",
"                                          ",
"                                          ",
"                                          "
};
