/* XPM */
static char *result[] = {
/* columns rows colors chars-per-pixel */
"42 66 25 1 ",
"  c #2E1A23",
". c #172D3B",
"X c #2B2B26",
"o c #3F3F37",
"O c #402018",
"+ c #452933",
"@ c #543538",
"# c #613835",
"$ c #63403D",
"% c #245257",
"& c #58594C",
"* c #8A583D",
"= c #815646",
"- c #A65A46",
"; c #B76A50",
": c #C7795A",
"> c #418079",
", c #BD8259",
"< c #808274",
"1 c #E39C76",
"2 c #EBC678",
"3 c #6EC09B",
"4 c #FFC79C",
"5 c #FFD1A4",
"6 c None",
/* pixels */
"666666666666666666666666666666666666666666",
"666666666666666666666666666666666666666666",
"666666666666666666666666666666666666666666",
"666666666666666666666666666666666666666666",
"66666666666666666666666666####****66666666",
"66666666666666666666666666####****66666666",
"66666666##666666666666******##******666666",
"66666666##666666666666******##******666666",
"66666666##6666######****************666666",
"66666666##6666######****************666666",
"666666++++++++####************##****666666",
"666666++++++++####************##****666666",
"666666++++++####**************##**66666666",
"666666++++++####**************##**66666666",
"666666######********####**####**6666666666",
"666666######********####**####**6666666666",
"666666++++####****111111111166666666666666",
"666666++++####****111111111166666666666666",
"666666######**##11OOOOOOOO11OO666666666666",
"666666######**##11OOOOOOOO11OO666666666666",
"666666++++++####11::::::----66666666666666",
"666666++++++####11::::::----66666666666666",
"666666++4411##::11OOOO11----6666&&<<666666",
"666666++4411##::11OOOO11----6666&&<<666666",
"666666664444++::11555555----66&&&&<<666666",
"666666664444++::11555555----66&&&&<<666666",
"66666666++++::::555555555555XX&&&&&&666666",
"66666666++++::::555555555555XX&&&&&&666666",
"6666666666::1111555555111155XXoo&&66666666",
"6666666666::1111555555111155XXoo&&66666666",
"666666666666::111155555555++  XX6666666666",
"666666666666::111155555555++  XX6666666666",
"66666666>>33>>>>%%------..==    6666666666",
"66666666>>33>>>>%%------..==    6666666666",
"6666663333>>33>>>>%%%%..$$====666666666666",
"6666663333>>33>>>>%%%%..$$====666666666666",
"666633333333>>>>33333333$$,,==666666666666",
"666633333333>>>>33333333$$,,==666666666666",
"663333333333>>33333333$$,,,,==666666666666",
"663333333333>>33333333$$,,,,==666666666666",
"66333333>>33>>333333$$,,,,,,33;;1166666666",
"66333333>>33>>333333$$,,,,,,33;;1166666666",
"663333>>33115555$$==,,,,,,3333111166666666",
"663333>>33115555$$==,,,,,,3333111166666666",
"666633>>3355555555,,,,,,333333;;1166666666",
"666633>>3355555555,,,,,,333333;;1166666666",
"66666666++55555511==33333333>>>>6666666666",
"66666666++55555511==33333333>>>>6666666666",
"66666666++  5555>>>>>>>>>>>>66666666666666",
"66666666++  5555>>>>>>>>>>>>66666666666666",
"66666666      @@    ,,2222  66666666666666",
"66666666      @@    ,,2222  66666666666666",
"66666666    66==========,,@@66666666666666",
"66666666    66==========,,@@66666666666666",
"66666666666666==,,,,,,,,,,@@==666666666666",
"66666666666666==,,,,,,,,,,@@==666666666666",
"66666666@@@@  ,,,,,,,,,,@@====666666666666",
"66666666@@@@  ,,,,,,,,,,@@====666666666666",
"66666666@@@@  ,,,,,,,,@@====@@666666666666",
"66666666@@@@  ,,,,,,,,@@====@@666666666666",
"66666666@@6666==,,==6666    66666666666666",
"66666666@@6666==,,==6666    66666666666666",
"666666666666666666666666++++66666666666666",
"666666666666666666666666++++66666666666666",
"666666666666666666666666++++++666666666666",
"666666666666666666666666++++++666666666666"
};
