/* XPM */
static const char *runr_03[] = {
/* columns rows colors chars-per-pixel */
"42 66 25 1 ",
"  c magenta",
". c #8A583D",
"X c #613835",
"o c #452933",
"O c #E39C76",
"+ c #402018",
"@ c #C7795A",
"# c #A65A46",
"$ c #FFC79C",
"% c #FFD1A4",
"& c #58594C",
"* c #808274",
"= c #3F3F37",
"- c #2E1A23",
"; c #245257",
": c #418079",
"> c #172D3B",
", c #815646",
"< c #63403D",
"1 c #6EC09B",
"2 c #B76A50",
"3 c #BD8259",
"4 c #543538",
"5 c #EBC678",
"6 c white",
/* pixels */
"                        ....  ......      ",
"                        ....  ......      ",
"        XX      XXXXXX......XX......      ",
"        XX      XXXXXX......XX......      ",
"        ooooooXXXXXX................      ",
"        ooooooXXXXXX................      ",
"      ooooXXXXXX..............XX..        ",
"      ooooXXXXXX..............XX..        ",
"      XXXX..........XXXX..XXXXXX          ",
"      XXXX..........XXXX..XXXXXX          ",
"      ooooXXXX....OOOOOOOOOO              ",
"      ooooXXXX....OOOOOOOOOO              ",
"      XXXXXX..XXOO++++++++OO++            ",
"      XXXXXX..XXOO++++++++OO++            ",
"      ooooooXXXXOO@@@@@@####              ",
"      ooooooXXXXOO@@@@@@####              ",
"      oo$$OOXX@@OO++++OO####              ",
"      oo$$OOXX@@OO++++OO####              ",
"        $$$$oo@@OO%%%%%%####              ",
"        $$$$oo@@OO%%%%%%####              ",
"        oooo@@@@%%%%%%%%%%%%&&**          ",
"        oooo@@@@%%%%%%%%%%%%&&**          ",
"          @@OOOO%%%%%%OOOO%%==&&          ",
"          @@OOOO%%%%%%OOOO%%==&&          ",
"            @@OOOO%%%%%%%%----            ",
"            @@OOOO%%%%%%%%----            ",
"          ;;;;::::;;####>>,,--            ",
"          ;;;;::::;;####>>,,--            ",
"        ;;;;::::::::;;;;>><<,,            ",
"        ;;;;::::::::;;;;>><<,,            ",
"      ;;;;;;::::11::11::::<<,,  %%OO%%    ",
"      ;;;;;;::::11::11::::<<,,  %%OO%%    ",
"    222222;;::11::1111111111::11%%%%%%%%  ",
"    222222;;::11::1111111111::11%%%%%%%%  ",
"    22222222;;::111111111111::11%%%%%%%%  ",
"    22222222;;::111111111111::11%%%%%%%%  ",
"    22222222;;::::1111111111::1111%%%%    ",
"    22222222;;::::1111111111::1111%%%%    ",
"      2222  <<<<,,333311111111::          ",
"      2222  <<<<,,333311111111::          ",
"            oo,,,,,,,,,,::::              ",
"            oo,,,,,,,,,,::::              ",
"            --::::::::::::                ",
"            --::::::::::::                ",
"          oo--44----335555--              ",
"          oo--44----335555--              ",
"          ----,,,,,,,,33,,44,,            ",
"          ----,,,,,,,,33,,44,,            ",
"          ----,,3333333344,,,,,,          ",
"          ----,,3333333344,,,,,,          ",
"            33333333334444,,,,,,,,        ",
"            33333333334444,,,,,,,,        ",
"    4444--3333333333        44,,,,        ",
"    4444--3333333333        44,,,,        ",
"    4444--,,3333,,            ----        ",
"    4444--,,3333,,            ----        ",
"    44                        oooo        ",
"    44                        oooo        ",
"                              oooooo      ",
"                              oooooo      ",
"                                          ",
"                                          ",
"                                          ",
"                                          ",
"                                          ",
"                                          "
};
