/* XPM */
static const char *runr_04[] = {
/* columns rows colors chars-per-pixel */
"42 66 25 1 ",
"  c magenta",
". c #613835",
"X c #8A583D",
"o c #452933",
"O c #E39C76",
"+ c #402018",
"@ c #C7795A",
"# c #A65A46",
"$ c #FFC79C",
"% c #FFD1A4",
"& c #58594C",
"* c #808274",
"= c #3F3F37",
"- c #2E1A23",
"; c #245257",
": c #418079",
"> c #172D3B",
", c #815646",
"< c #63403D",
"1 c #B76A50",
"2 c #6EC09B",
"3 c #BD8259",
"4 c #543538",
"5 c #EBC678",
"6 c white",
/* pixels */
"                          ....XXXX        ",
"                          ....XXXX        ",
"        ..            XXXXXX..XXXXXX      ",
"        ..            XXXXXX..XXXXXX      ",
"        ..    ......XXXXXXXXXXXXXXXX      ",
"        ..    ......XXXXXXXXXXXXXXXX      ",
"      oooooooo....XXXXXXXXXXXX..XXXX      ",
"      oooooooo....XXXXXXXXXXXX..XXXX      ",
"      oooooo....XXXXXXXXXXXXXX..XX        ",
"      oooooo....XXXXXXXXXXXXXX..XX        ",
"      ......XXXXXXXX....XX....XX          ",
"      ......XXXXXXXX....XX....XX          ",
"      oooo....XXXXOOOOOOOOOO              ",
"      oooo....XXXXOOOOOOOOOO              ",
"      ......XX..OO++++++++OO++            ",
"      ......XX..OO++++++++OO++            ",
"      oooooo....OO@@@@@@####              ",
"      oooooo....OO@@@@@@####              ",
"      oo$$OO..@@OO++++OO####              ",
"      oo$$OO..@@OO++++OO####              ",
"        $$$$oo@@OO%%%%%%####  &&**        ",
"        $$$$oo@@OO%%%%%%####  &&**        ",
"        oooo@@@@%%%%%%%%%%%%&&&&&&        ",
"        oooo@@@@%%%%%%%%%%%%&&&&&&        ",
"          @@OOOO%%%%%%OOOO%%==&&          ",
"          @@OOOO%%%%%%OOOO%%==&&          ",
"            @@OOOO%%%%%%%%----==          ",
"            @@OOOO%%%%%%%%----==          ",
"            ;;::;;######>>,,--            ",
"            ;;::;;######>>,,--            ",
"          ;;::::::;;;;>>::<<,,            ",
"          ;;::::::;;;;>>::<<,,            ",
"        ;;;;::::::::::::::<<,,            ",
"        ;;;;::::::::::::::<<,,            ",
"        11;;::::22::::::<<,,33  %%OO%%%%  ",
"        11;;::::22::::::<<,,33  %%OO%%%%  ",
"      111111;;22::2222::::::::22%%%%%%%%  ",
"      111111;;22::2222::::::::22%%%%%%%%  ",
"      111111;;::222222222222::22%%%%%%%%  ",
"      111111;;::222222222222::22%%%%%%%%  ",
"        1111<<,,222222222222::2222%%%%    ",
"        1111<<,,222222222222::2222%%%%    ",
"          oo--,,,,2222222222222222        ",
"          oo--,,,,2222222222222222        ",
"        oo----::::::::::::::              ",
"        oo----::::::::::::::              ",
"        ------44----335555--              ",
"        ------44----335555--              ",
"        ----  ,,,,,,,,333344              ",
"        ----  ,,,,,,,,333344              ",
"              ,,33333333,,44,,            ",
"              ,,33333333,,44,,            ",
"      44--    333333333344,,,,            ",
"      44--    333333333344,,,,            ",
"    4444--,,33333333334444,,,,,,          ",
"    4444--,,33333333334444,,,,,,          ",
"    44  ,,3333333333    44,,,,,,          ",
"    44  ,,3333333333    44,,,,,,          ",
"          ,,3333,,        44,,,,44        ",
"          ,,3333,,        44,,,,44        ",
"                            44----        ",
"                            44----        ",
"                              --oooo      ",
"                              --oooo      ",
"                              oooo        ",
"                              oooo        "
};
