/* XPM */
static char *result[] = {
/* columns rows colors chars-per-pixel */
"42 66 24 1 ",
"  c #2E1A23",
". c #172D3B",
"X c #3F3F37",
"o c #402018",
"O c #452933",
"+ c #543538",
"@ c #613835",
"# c #63403D",
"$ c #245257",
"% c #58594C",
"& c #8A583D",
"* c #815646",
"= c #A65A46",
"- c #B76A50",
"; c #C7795A",
": c #418079",
"> c #BD8259",
", c #808274",
"< c #E39C76",
"1 c #EBC678",
"2 c #6EC09B",
"3 c #FFC79C",
"4 c #FFD1A4",
"5 c None",
/* pixels */
"555555555555555555555555&&&&55&&&&&&555555",
"555555555555555555555555&&&&55&&&&&&555555",
"55555555@@555555@@@@@@&&&&&&@@&&&&&&555555",
"55555555@@555555@@@@@@&&&&&&@@&&&&&&555555",
"55555555OOOOOO@@@@@@&&&&&&&&&&&&&&&&555555",
"55555555OOOOOO@@@@@@&&&&&&&&&&&&&&&&555555",
"555555OOOO@@@@@@&&&&&&&&&&&&&&@@&&55555555",
"555555OOOO@@@@@@&&&&&&&&&&&&&&@@&&55555555",
"555555@@@@&&&&&&&&&&@@@@&&@@@@@@5555555555",
"555555@@@@&&&&&&&&&&@@@@&&@@@@@@5555555555",
"555555OOOO@@@@&&&&<<<<<<<<<<55555555555555",
"555555OOOO@@@@&&&&<<<<<<<<<<55555555555555",
"555555@@@@@@&&@@<<oooooooo<<oo555555555555",
"555555@@@@@@&&@@<<oooooooo<<oo555555555555",
"555555OOOOOO@@@@<<;;;;;;====55555555555555",
"555555OOOOOO@@@@<<;;;;;;====55555555555555",
"555555OO33<<@@;;<<oooo<<====55555555555555",
"555555OO33<<@@;;<<oooo<<====55555555555555",
"555555553333OO;;<<444444====55555555555555",
"555555553333OO;;<<444444====55555555555555",
"55555555OOOO;;;;444444444444%%,,5555555555",
"55555555OOOO;;;;444444444444%%,,5555555555",
"5555555555;;<<<<444444<<<<44XX%%5555555555",
"5555555555;;<<<<444444<<<<44XX%%5555555555",
"555555555555;;<<<<44444444    555555555555",
"555555555555;;<<<<44444444    555555555555",
"5555555555$$$$::::$$====..**  555555555555",
"5555555555$$$$::::$$====..**  555555555555",
"55555555$$$$::::::::$$$$..##**555555555555",
"55555555$$$$::::::::$$$$..##**555555555555",
"555555$$$$$$::::22::22::::##**5544<<445555",
"555555$$$$$$::::22::22::::##**5544<<445555",
"5555------$$::22::2222222222::224444444455",
"5555------$$::22::2222222222::224444444455",
"5555--------$$::222222222222::224444444455",
"5555--------$$::222222222222::224444444455",
"5555--------$$::::2222222222::222244445555",
"5555--------$$::::2222222222::222244445555",
"555555----55####**>>>>22222222::5555555555",
"555555----55####**>>>>22222222::5555555555",
"555555555555OO**********::::55555555555555",
"555555555555OO**********::::55555555555555",
"555555555555  ::::::::::::5555555555555555",
"555555555555  ::::::::::::5555555555555555",
"5555555555OO  ++    >>1111  55555555555555",
"5555555555OO  ++    >>1111  55555555555555",
"5555555555    ********>>**++**555555555555",
"5555555555    ********>>**++**555555555555",
"5555555555    **>>>>>>>>++******5555555555",
"5555555555    **>>>>>>>>++******5555555555",
"555555555555>>>>>>>>>>++++********55555555",
"555555555555>>>>>>>>>>++++********55555555",
"5555++++  >>>>>>>>>>55555555++****55555555",
"5555++++  >>>>>>>>>>55555555++****55555555",
"5555++++  **>>>>**555555555555    55555555",
"5555++++  **>>>>**555555555555    55555555",
"5555++555555555555555555555555OOOO55555555",
"5555++555555555555555555555555OOOO55555555",
"555555555555555555555555555555OOOOOO555555",
"555555555555555555555555555555OOOOOO555555",
"555555555555555555555555555555555555555555",
"555555555555555555555555555555555555555555",
"555555555555555555555555555555555555555555",
"555555555555555555555555555555555555555555",
"555555555555555555555555555555555555555555",
"555555555555555555555555555555555555555555"
};
