/* XPM */
static const char *runr_05[] = {
/* columns rows colors chars-per-pixel */
"42 66 26 1 ",
"  c magenta",
". c #613835",
"X c #8A583D",
"o c #452933",
"O c #E39C76",
"+ c #402018",
"@ c #C7795A",
"# c #A65A46",
"$ c #FFC79C",
"% c #58594C",
"& c #808274",
"* c #FFD1A4",
"= c #2B2B26",
"- c #3F3F37",
"; c #2E1A23",
": c #418079",
"> c #6EC09B",
", c #245257",
"< c #172D3B",
"1 c #815646",
"2 c #63403D",
"3 c #BD8259",
"4 c #B76A50",
"5 c #543538",
"6 c #EBC678",
"7 c white",
/* pixels */
"                                          ",
"                                          ",
"                                          ",
"                                          ",
"                          ....XXXX        ",
"                          ....XXXX        ",
"        ..            XXXXXX..XXXXXX      ",
"        ..            XXXXXX..XXXXXX      ",
"        ..    ......XXXXXXXXXXXXXXXX      ",
"        ..    ......XXXXXXXXXXXXXXXX      ",
"      oooooooo....XXXXXXXXXXXX..XXXX      ",
"      oooooooo....XXXXXXXXXXXX..XXXX      ",
"      oooooo....XXXXXXXXXXXXXX..XX        ",
"      oooooo....XXXXXXXXXXXXXX..XX        ",
"      ......XXXXXXXX....XX....XX          ",
"      ......XXXXXXXX....XX....XX          ",
"      oooo....XXXXOOOOOOOOOO              ",
"      oooo....XXXXOOOOOOOOOO              ",
"      ......XX..OO++++++++OO++            ",
"      ......XX..OO++++++++OO++            ",
"      oooooo....OO@@@@@@####              ",
"      oooooo....OO@@@@@@####              ",
"      oo$$OO..@@OO++++OO####    %%&&      ",
"      oo$$OO..@@OO++++OO####    %%&&      ",
"        $$$$oo@@OO******####  %%%%&&      ",
"        $$$$oo@@OO******####  %%%%&&      ",
"        oooo@@@@************==%%%%%%      ",
"        oooo@@@@************==%%%%%%      ",
"          @@OOOO******OOOO**==--%%        ",
"          @@OOOO******OOOO**==--%%        ",
"            @@OOOO********oo;;==          ",
"            @@OOOO********oo;;==          ",
"        ::>>::::,,######<<11;;;;          ",
"        ::>>::::,,######<<11;;;;          ",
"      >>>>::>>::::,,,,<<221111            ",
"      >>>>::>>::::,,,,<<221111            ",
"    >>>>>>>>::::>>>>>>>>223311            ",
"    >>>>>>>>::::>>>>>>>>223311            ",
"  >>>>>>>>>>::>>>>>>>>22333311            ",
"  >>>>>>>>>>::>>>>>>>>22333311            ",
"  >>>>>>::>>::>>>>>>22333333>>44OO        ",
"  >>>>>>::>>::>>>>>>22333333>>44OO        ",
"  >>>>::>>OO****2211333333>>>>OOOO        ",
"  >>>>::>>OO****2211333333>>>>OOOO        ",
"    >>::>>********333333>>>>>>44OO        ",
"    >>::>>********333333>>>>>>44OO        ",
"        oo******OO11>>>>>>>>::::          ",
"        oo******OO11>>>>>>>>::::          ",
"        oo;;****::::::::::::              ",
"        oo;;****::::::::::::              ",
"        ;;;;;;55;;;;336666;;              ",
"        ;;;;;;55;;;;336666;;              ",
"        ;;;;  11111111113355              ",
"        ;;;;  11111111113355              ",
"              1133333333335511            ",
"              1133333333335511            ",
"        5555;;3333333333551111            ",
"        5555;;3333333333551111            ",
"        5555;;3333333355111155            ",
"        5555;;3333333355111155            ",
"        55    113311    ;;;;              ",
"        55    113311    ;;;;              ",
"                        oooo              ",
"                        oooo              ",
"                        oooooo            ",
"                        oooooo            "
};
