/* XPM */
static char *result[] = {
/* columns rows colors chars-per-pixel */
"42 66 25 1 ",
"  c #2E1A23",
". c #172D3B",
"X c #2B2B26",
"o c #3F3F37",
"O c #402018",
"+ c #452933",
"@ c #543538",
"# c #613835",
"$ c #63403D",
"% c #245257",
"& c #58594C",
"* c #8A583D",
"= c #815646",
"- c #A65A46",
"; c #B76A50",
": c #C7795A",
"> c #418079",
", c #BD8259",
"< c #808274",
"1 c #E39C76",
"2 c #EBC678",
"3 c #6EC09B",
"4 c #FFC79C",
"5 c #FFD1A4",
"6 c None",
/* pixels */
"666666666666666666666666666666666666666666",
"666666666666666666666666666666666666666666",
"666666666666666666666666666666666666666666",
"666666666666666666666666666666666666666666",
"66666666666666########****##****6666666666",
"66666666666666########****##****6666666666",
"666666##++++######********##******66666666",
"666666##++++######********##******66666666",
"666666++++####********************66666666",
"666666++++####********************66666666",
"666666####********####**######**6666666666",
"666666####********####**######**6666666666",
"666666++####****111111111111##666666666666",
"666666++####****111111111111##666666666666",
"666666####**##11OOOOOOOO11OOOO666666666666",
"666666####**##11OOOOOOOO11OOOO666666666666",
"666666++++####11::::::----::66666666666666",
"666666++++####11::::::----::66666666666666",
"6666664411##::11OOOO11----OO66666666666666",
"6666664411##::11OOOO11----OO66666666666666",
"6666664444++::11555555----5566666666666666",
"6666664444++::11555555----5566666666666666",
"66666666++::::555555555555556666&&<<666666",
"66666666++::::555555555555556666&&<<666666",
"6666666666111155555511115555XX&&&&&&666666",
"6666666666111155555511115555XX&&&&&&666666",
"66666666666611115555555555++  oo&&66666666",
"66666666666611115555555555++  oo&&66666666",
"66666666>>33>>>>%%------..==    6666666666",
"66666666>>33>>>>%%------..==    6666666666",
"6666333333>>33>>>>%%%%..$$====666666666666",
"6666333333>>33>>>>%%%%..$$====666666666666",
"663333333333>>>>333333$$,,,,==666666666666",
"663333333333>>>>333333$$,,,,==666666666666",
"663333333333>>333333$$,,,,,,33666666666666",
"663333333333>>333333$$,,,,,,33666666666666",
"66>>>>>>3333>>3333$$,,,,,,3333661111116666",
"66>>>>>>3333>>3333$$,,,,,,3333661111116666",
"663333333333>>$$$$,,,,,,333333;;1111116666",
"663333333333>>$$$$,,,,,,333333;;1111116666",
"666611555555>>==,,,,,,33333333;;;;;;116666",
"666611555555>>==,,,,,,33333333;;;;;;116666",
"666655555511  ======33333333>>>>;;11116666",
"666655555511  ======33333333>>>>;;11116666",
"666666555555  >>>>>>>>>>>>>>66666666666666",
"666666555555  >>>>>>>>>>>>>>66666666666666",
"66666666      @@    ,,2222  66666666666666",
"66666666      @@    ,,2222  66666666666666",
"66666666    66========,,,,==66666666666666",
"66666666    66========,,,,==66666666666666",
"66666666666666@@==,,,,,,,,,,66666666666666",
"66666666666666@@==,,,,,,,,,,66666666666666",
"66666666666666@@@@@@,,,,,,==66666666666666",
"66666666666666@@@@@@,,,,,,==66666666666666",
"66666666666666@@==    ==,,6666666666666666",
"66666666666666@@==    ==,,6666666666666666",
"66666666666666====@@@@  666666666666666666",
"66666666666666====@@@@  666666666666666666",
"666666666666@@====@@@@66666666666666666666",
"666666666666@@====@@@@66666666666666666666",
"666666666666    66@@6666666666666666666666",
"666666666666    66@@6666666666666666666666",
"666666666666++++66666666666666666666666666",
"666666666666++++66666666666666666666666666",
"666666666666++++++666666666666666666666666",
"666666666666++++++666666666666666666666666"
};
