/* XPM */
static char *result[] = {
/* columns rows colors chars-per-pixel */
"42 66 26 1 ",
"  c #2E1A23",
". c #172D3B",
"X c #2B2B26",
"o c #3F3F37",
"O c #402018",
"+ c #452933",
"@ c #543538",
"# c #613835",
"$ c #63403D",
"% c #244B57",
"& c #245257",
"* c #58594C",
"= c #8A583D",
"- c #815646",
"; c #A65A46",
": c #B76A50",
"> c #C7795A",
", c #418079",
"< c #BD8259",
"1 c #808274",
"2 c #E39C76",
"3 c #EBC678",
"4 c #6EC09B",
"5 c #FFC79C",
"6 c #FFD1A4",
"7 c None",
/* pixels */
"777777777777777777777777####====7777777777",
"777777777777777777777777####====7777777777",
"777777##777777777777======##======77777777",
"777777##777777777777======##======77777777",
"777777##7777######================77777777",
"777777##7777######================77777777",
"777777++++++####============##====77777777",
"777777++++++####============##====77777777",
"777777++++####==============##==7777777777",
"777777++++####==============##==7777777777",
"777777####========####==####==777777777777",
"777777####========####==####==777777777777",
"777777++####====22222222222277777777777777",
"777777++####====22222222222277777777777777",
"777777####==##22OOOOOOOO22OOOO777777777777",
"777777####==##22OOOOOOOO22OOOO777777777777",
"777777++++####22>>>>>>;;;;>>77777777777777",
"777777++++####22>>>>>>;;;;>>77777777777777",
"7777775522##>>22OOOO22;;;;OO77777777777777",
"7777775522##>>22OOOO22;;;;OO77777777777777",
"7777775555++>>22666666;;;;667777**11777777",
"7777775555++>>22666666;;;;667777**11777777",
"77777777++>>>>66666666666666XX******777777",
"77777777++>>>>66666666666666XX******777777",
"7777777777222266666622226666  oo**77777777",
"7777777777222266666622226666  oo**77777777",
"77777777777722226666666666      7777777777",
"77777777777722226666666666      7777777777",
"777777,,44,,,,,,&&;;;;;;..--  777777777777",
"777777,,44,,,,,,&&;;;;;;..--  777777777777",
"77444444,,44,,,,,,&&&&..$$----777777777777",
"77444444,,44,,,,,,&&&&..$$----777777777777",
"4444444444,,,,,,444444$$<<<<--777777222222",
"4444444444,,,,,,444444$$<<<<--777777222222",
"4444444444,,,,444444$$<<<<<<4477%%::222222",
"4444444444,,,,444444$$<<<<<<4477%%::222222",
",,,,,,4444,,,,4444$$<<<<<<4444,,%%::::2222",
",,,,,,4444,,,,4444$$<<<<<<4444,,%%::::2222",
"4444444477,,,,$$$$<<<<<<444444,,%%,,::2222",
"4444444477,,,,$$$$<<<<<<444444,,%%,,::2222",
"7722666666++----<<<<<<44444444,,,,%%,,7777",
"7722666666++----<<<<<<44444444,,,,%%,,7777",
"7766666622    ------44444444,,,,,,,,777777",
"7766666622    ------44444444,,,,,,,,777777",
"7777666666    ,,,,,,,,,,,,,,77777777777777",
"7777666666    ,,,,,,,,,,,,,,77777777777777",
"77777777    77@@@@    <<33  77777777777777",
"77777777    77@@@@    <<33  77777777777777",
"77777777777777----------<<--77777777777777",
"77777777777777----------<<--77777777777777",
"77777777777777@@@@--<<<<<<<<77777777777777",
"77777777777777@@@@--<<<<<<<<77777777777777",
"77777777++  77@@@@@@--<<<<<<<<777777777777",
"77777777++  77@@@@@@--<<<<<<<<777777777777",
"777777++++  ------@@@@<<<<<<<<777777777777",
"777777++++  ------@@@@<<<<<<<<777777777777",
"777777++77@@--------7777--<<<<--7777777777",
"777777++77@@--------7777--<<<<--7777777777",
"777777777777@@--@@77777777<<<<<<7777777777",
"777777777777@@--@@77777777<<<<<<7777777777",
"77777777777777777777777777--    7777777777",
"77777777777777777777777777--    7777777777",
"7777777777777777777777777777  @@@@77777777",
"7777777777777777777777777777  @@@@77777777",
"7777777777777777777777777777@@@@7777777777",
"7777777777777777777777777777@@@@7777777777"
};
