/* XPM */
static char *_47272a9fca44b95f243049a0216263aj3lyqn7Q4Pc2uMis[] = {
/* columns rows colors chars-per-pixel */
"32 32 7 1 ",
"  c #060308",
". c #7A213A",
"X c #E14141",
"o c #39855A",
"O c #83E04C",
"+ c #FFF275",
"@ c magenta",
/* pixels */
"@@@@@@@@@@@@@@@@@@@@@@@@@@@@@@@@",
"@@@@@@@@@@@@@@@@@@@@@@@@@@@@@@@@",
"@@@@@@@@@@@@@@@@@@@@@@@@@@@@@@@@",
"@@@@@@@@@@@@@@@@@@@@@  @@@@@@@@@",
"@@@@@@@@@@@@@@@@@@@@ Oo @@@@@@@@",
"@@@@@@@@@@@@     @@ Ooo @@@@@@@@",
"@@@@@@@@@   OOOOO  OOo @@@@@@@@@",
"@@@@@@@  OOOOOOOOOOOo @@@@@@@@@@",
"@@@@@@ OOOOOooOOOOOOoo @@@@@@@@@",
"@@@@@@@ .Ooo..OOOOOOOoo @@@@@@@@",
"@@@@@@@ Xo...OOOOOOOOoo @@@@@@@@",
"@@@@@@ XX.XXX.OOOOoOOOoo @@@@@@@",
"@@@@@@ XXXXXX.OOoo.oOOooo @@@@@@",
"@@@@@@ XX+XXXOoo....oOooo @@@@@@",
"@@@@@@ XX.XXXo..XX.oOoooo @@@@@@",
"@@@@@@ XXXXXX.XXXX.oOoooo @@@@@@",
"@@@@@ XXXXXXXXXX+XX.o..ooo @@@@@",
"@@@@@ XXXXX+XXXX.XXX...   @@@@@@",
"@@@@@ XXXXX.XXXXXXXX... @@@@@@@@",
"@@@@@ XXXXXXXXXXXXX... @@@@@@@@@",
"@@@@@ X+XXXXXXXXXX... @@@@@@@@@@",
"@@@@@ X.XXXXX+XXX+.. @@@@@@@@@@@",
"@@@@@ XXXXXXX.XXX.. @@@@@@@@@@@@",
"@@@@@ XXXXXXXXXX.. @@@@@@@@@@@@@",
"@@@@@ XXXX+XXX..  @@@@@@@@@@@@@@",
"@@@@@@ XXX.X..  @@@@@@@@@@@@@@@@",
"@@@@@@ X....  @@@@@@@@@@@@@@@@@@",
"@@@@@@@     @@@@@@@@@@@@@@@@@@@@",
"@@@@@@@@@@@@@@@@@@@@@@@@@@@@@@@@",
"@@@@@@@@@@@@@@@@@@@@@@@@@@@@@@@@",
"@@@@@@@@@@@@@@@@@@@@@@@@@@@@@@@@",
"@@@@@@@@@@@@@@@@@@@@@@@@@@@@@@@@"
};
