/* XPM */
static const char *idle09[] = {
/* columns rows colors chars-per-pixel */
"38 68 27 1 ",
"  c magenta",
". c #8A583D",
"X c #613835",
"o c #452933",
"O c #E39C76",
"+ c #402018",
"@ c #C7795A",
"# c #A65A46",
"$ c #FFC79C",
"% c #FFD1A4",
"& c #808274",
"* c #58594C",
"= c #3F3F37",
"- c #2B2B26",
"; c #2E1A23",
": c #815646",
"> c #172D3B",
", c #245257",
"< c #418079",
"1 c #63403D",
"2 c #6EC09B",
"3 c #BD8259",
"4 c #244B57",
"5 c #B76A50",
"6 c #EBC678",
"7 c #543538",
"8 c white",
/* pixels */
"                                      ",
"                                      ",
"      ....XX....XXXXXXXX              ",
"      ....XX....XXXXXXXX              ",
"    ......XX........XXXXXXooooXX      ",
"    ......XX........XXXXXXooooXX      ",
"    ....................XXXXoooo      ",
"    ....................XXXXoooo      ",
"      ..XXXXXX..XXXX........XXXX      ",
"      ..XXXXXX..XXXX........XXXX      ",
"        XXOOOOOOOOOOOO....XXXXoo      ",
"        XXOOOOOOOOOOOO....XXXXoo      ",
"        ++++OO++++++++OOXX..XXXX      ",
"        ++++OO++++++++OOXX..XXXX      ",
"          @@####@@@@@@OOXXXXoooo      ",
"          @@####@@@@@@OOXXXXoooo      ",
"          ++####OO++++OO@@XXOO$$      ",
"          ++####OO++++OO@@XXOO$$      ",
"          %%####%%%%%%OO@@oo$$$$      ",
"          %%####%%%%%%OO@@oo$$$$      ",
"&&**      %%%%%%%%%%%%%%@@@@oo        ",
"&&**      %%%%%%%%%%%%%%@@@@oo        ",
"******    %%%%OOOO%%%%%%OOOO          ",
"******    %%%%OOOO%%%%%%OOOO          ",
"  **==--==  %%%%%%%%%%OOOO            ",
"  **==--==  %%%%%%%%%%OOOO            ",
"    --==;;::>>######,,<<<<<<<<        ",
"    --==;;::>>######,,<<<<<<<<        ",
"    ==<<::::11>>,,,,<<<<<<<<22<<      ",
"    ==<<::::11>>,,,,<<<<<<<<22<<      ",
"      <<::::3311222222<<<<22<<2222    ",
"      <<::::3311222222<<<<22<<2222    ",
"    <<<<2233333311222222<<<<22222222  ",
"    <<<<2233333311222222<<<<22222222  ",
"    <<<<2222333333112222<<<<22222222  ",
"    <<<<2222333333112222<<<<22222222  ",
"  <<<<<<2222223333331111<<<<2222222222",
"  <<<<<<2222223333331111<<<<2222222222",
"  <<<<<<2222222233333333::    22222222",
"  <<<<<<2222222233333333::    22222222",
"  444444<<22222222::::::      22<<<<<<",
"  444444<<22222222::::::      22<<<<<<",
"  <<<<<<  2222222222<<<<;;oo    222222",
"  <<<<<<  2222222222<<<<;;oo    222222",
"  555555  <<<<<<<<<<<<<<;;;;oo  %%%%OO",
"  555555  <<<<<<<<<<<<<<;;;;oo  %%%%OO",
"  OOOO55OO;;666633;;;;77;;;;;;%%%%%%%%",
"  OOOO55OO;;666633;;;;77;;;;;;%%%%%%%%",
"  OO55OOOO7777::::::33::  ;;;;OO%%%%%%",
"  OO55OOOO7777::::::33::  ;;;;OO%%%%%%",
"    OOOO  7777::33333333        %%%%  ",
"    OOOO  7777::33333333        %%%%  ",
"          ::::773333333333            ",
"          ::::773333333333            ",
"          ::::77::33333333            ",
"          ::::77::33333333            ",
"          ::::::7733333333::          ",
"          ::::::7733333333::          ",
"            ::::77  33333333          ",
"            ::::77  33333333          ",
"            ::::::    3333::          ",
"            ::::::    3333::          ",
"            ;;;;        ;;;;          ",
"            ;;;;        ;;;;          ",
"            oooo        7777          ",
"            oooo        7777          ",
"          oooooo        7777          ",
"          oooooo        7777          "
};
