/* XPM */
static const char *idle10[] = {
/* columns rows colors chars-per-pixel */
"38 68 27 1 ",
"  c magenta",
". c #8A583D",
"X c #613835",
"o c #452933",
"O c #E39C76",
"+ c #402018",
"@ c #C7795A",
"# c #A65A46",
"$ c #FFC79C",
"% c #808274",
"& c #58594C",
"* c #FFD1A4",
"= c #3F3F37",
"- c #2B2B26",
"; c #2E1A23",
": c #815646",
"> c #172D3B",
", c #245257",
"< c #418079",
"1 c #6EC09B",
"2 c #63403D",
"3 c #BD8259",
"4 c #244B57",
"5 c #B76A50",
"6 c #EBC678",
"7 c #543538",
"8 c white",
/* pixels */
"                                      ",
"                                      ",
"    ......  ....                      ",
"    ......  ....                      ",
"    ......XX......XXXXXX      XX      ",
"    ......XX......XXXXXX      XX      ",
"    ................XXXXXXoooo        ",
"    ................XXXXXXoooo        ",
"      ..XX..............XXXXoooo      ",
"      ..XX..............XXXXoooo      ",
"        XXXXXX..XXXX........XXXX      ",
"        XXXXXX..XXXX........XXXX      ",
"          OOOOOOOOOOOO....XXXXoo      ",
"          OOOOOOOOOOOO....XXXXoo      ",
"        ++++OO++++++++OOXX..XXXX      ",
"        ++++OO++++++++OOXX..XXXX      ",
"          @@####@@@@@@OOXXXXoooo      ",
"          @@####@@@@@@OOXXXXoooo      ",
"          ++####OO++++OO@@XXOO$$      ",
"          ++####OO++++OO@@XXOO$$      ",
"%%&&      **####******OO@@oo$$$$      ",
"%%&&      **####******OO@@oo$$$$      ",
"&&&&&&    **************@@@@oo        ",
"&&&&&&    **************@@@@oo        ",
"  &&==--==****OOOO******OOOO          ",
"  &&==--==****OOOO******OOOO          ",
"    --==;;oo**********OOOO            ",
"    --==;;oo**********OOOO            ",
"    ==;;;;::>>######,,<<<<<<11<<      ",
"    ==;;;;::>>######,,<<<<<<11<<      ",
"      <<::::22>>,,,,<<<<<<11<<1111    ",
"      <<::::22>>,,,,<<<<<<11<<1111    ",
"    <<<<::333322111111<<<<<<11111111  ",
"    <<<<::333322111111<<<<<<11111111  ",
"    <<<<1133333322111111<<<<11111111  ",
"    <<<<1133333322111111<<<<11111111  ",
"  <<<<<<1111333333221111<<<<1111111111",
"  <<<<<<1111333333221111<<<<1111111111",
"  <<<<<<1111113333332222<<<<  11111111",
"  <<<<<<1111113333332222<<<<  11111111",
"  44444411111111333333::::    11<<<<<<",
"  44444411111111333333::::    11<<<<<<",
"  <<<<<<  11111111::::::;;oo    111111",
"  <<<<<<  11111111::::::;;oo    111111",
"  555555  <<<<<<<<<<<<<<;;;;oo  ****OO",
"  555555  <<<<<<<<<<<<<<;;;;oo  ****OO",
"  OOOO55OO;;666633;;;;77;;;;;;********",
"  OOOO55OO;;666633;;;;77;;;;;;********",
"  OO55OOOO7777::::::33::  ;;;;OO******",
"  OO55OOOO7777::::::33::  ;;;;OO******",
"    OOOO  7777::33333333        ****  ",
"    OOOO  7777::33333333        ****  ",
"          ::::773333333333            ",
"          ::::773333333333            ",
"          ::::77::33333333            ",
"          ::::77::33333333            ",
"          ::::::7733333333::          ",
"          ::::::7733333333::          ",
"            ::::77  33333333          ",
"            ::::77  33333333          ",
"            ::::::    3333::          ",
"            ::::::    3333::          ",
"            ;;;;        ;;;;          ",
"            ;;;;        ;;;;          ",
"            oooo        7777          ",
"            oooo        7777          ",
"          oooooo        7777          ",
"          oooooo        7777          "
};
