/* XPM */
static const char *idle04[] = {
/* columns rows colors chars-per-pixel */
"38 68 26 1 ",
"  c #2E1A23",
". c #172D3B",
"X c #2B2B26",
"o c #3F3F37",
"O c #402018",
"+ c #452933",
"@ c #543538",
"# c #613835",
"$ c #63403D",
"% c #244B57",
"& c #245257",
"* c #58594C",
"= c #8A583D",
"- c #815646",
"; c #A65A46",
": c #B76A50",
"> c #C7795A",
", c #418079",
"< c #BD8259",
"1 c #808274",
"2 c #E39C76",
"3 c #EBC678",
"4 c #6EC09B",
"5 c #FFC79C",
"6 c #FFD1A4",
"7 c None",
/* pixels */
"7777======77====7777777777777777777777",
"7777======77====7777777777777777777777",
"7777======##======######777777##777777",
"7777======##======######777777##777777",
"7777================######++++77777777",
"7777================######++++77777777",
"777777==##==============####++++777777",
"777777==##==============####++++777777",
"77777777######==####========####777777",
"77777777######==####========####777777",
"7777777777222222222222====####++777777",
"7777777777222222222222====####++777777",
"77777777OOOO22OOOOOOOO22##==####777777",
"77777777OOOO22OOOOOOOO22##==####777777",
"7777777777>>;;;;>>>>>>22####++++777777",
"7777777777>>;;;;>>>>>>22####++++777777",
"7777777777OO;;;;22OOOO22>>##2255777777",
"7777777777OO;;;;22OOOO22>>##2255777777",
"11**77777766;;;;66666622>>++5555777777",
"11**77777766;;;;66666622>>++5555777777",
"******777766666666666666>>>>++77777777",
"******777766666666666666>>>>++77777777",
"77**ooXXoo6666222266666622227777777777",
"77**ooXXoo6666222266666622227777777777",
"7777XXoo  ++66666666662222777777777777",
"7777XXoo  ++66666666662222777777777777",
"7777oo    --..;;;;;;&&,,,,,,44,,777777",
"7777oo    --..;;;;;;&&,,,,,,44,,777777",
"777777,,----$$..&&&&,,,,,,44,,44447777",
"777777,,----$$..&&&&,,,,,,44,,44447777",
"7777,,,,--<<<<$$44444444,,,,4444444477",
"7777,,,,--<<<<$$44444444,,,,4444444477",
"7777,,,,44<<<<<<$$444444,,,,4444444477",
"7777,,,,44<<<<<<$$444444,,,,4444444477",
"7777,,,,4444<<<<<<$$44,,,,,,4444444444",
"7777,,,,4444<<<<<<$$44,,,,,,4444444444",
"77,,,,,,444444<<<<<<$$$$,,777744444444",
"77,,,,,,444444<<<<<<$$$$,,777744444444",
"77%%%%%%,,444444<<<<<<----777744,,,,,,",
"77%%%%%%,,444444<<<<<<----777744,,,,,,",
"77,,,,,,77,,444444------  ++77,,444444",
"77,,,,,,77,,444444------  ++77,,444444",
"77::::::77,,,,,,,,,,,,,,    ++77666622",
"77::::::77,,,,,,,,,,,,,,    ++77666622",
"772222::22  3333<<    @@      66666666",
"772222::22  3333<<    @@      66666666",
"7722::2222@@@@----------77    22666666",
"7722::2222@@@@----------77    22666666",
"7777222277@@@@--<<<<<<<<77777777666677",
"7777222277@@@@--<<<<<<<<77777777666677",
"7777777777----@@<<<<<<<<<<777777777777",
"7777777777----@@<<<<<<<<<<777777777777",
"7777777777----@@--<<<<<<<<777777777777",
"7777777777----@@--<<<<<<<<777777777777",
"7777777777------@@<<<<<<<<--7777777777",
"7777777777------@@<<<<<<<<--7777777777",
"777777777777----@@77<<<<<<<<7777777777",
"777777777777----@@77<<<<<<<<7777777777",
"777777777777------77--<<<<<<7777777777",
"777777777777------77--<<<<<<7777777777",
"777777777777----777777<<<<--7777777777",
"777777777777----777777<<<<--7777777777",
"777777777777    77777777    7777777777",
"777777777777    77777777    7777777777",
"777777777777++++77777777@@@@7777777777",
"777777777777++++77777777@@@@7777777777",
"7777777777++++++77777777@@@@7777777777",
"7777777777++++++77777777@@@@7777777777"
};
