/* XPM */
static const char *idle04[] = {
/* columns rows colors chars-per-pixel */
"38 68 27 1 ",
"  c magenta",
". c #8A583D",
"X c #613835",
"o c #452933",
"O c #E39C76",
"+ c #402018",
"@ c #C7795A",
"# c #A65A46",
"$ c #FFC79C",
"% c #808274",
"& c #58594C",
"* c #FFD1A4",
"= c #3F3F37",
"- c #2B2B26",
"; c #2E1A23",
": c #172D3B",
"> c #245257",
", c #418079",
"< c #6EC09B",
"1 c #815646",
"2 c #BD8259",
"3 c #63403D",
"4 c #244B57",
"5 c #B76A50",
"6 c #EBC678",
"7 c #543538",
"8 c white",
/* pixels */
"    ......  ....                      ",
"    ......  ....                      ",
"    ......XX......XXXXXX      XX      ",
"    ......XX......XXXXXX      XX      ",
"    ................XXXXXXoooo        ",
"    ................XXXXXXoooo        ",
"      ..XX..............XXXXoooo      ",
"      ..XX..............XXXXoooo      ",
"        XXXXXX..XXXX........XXXX      ",
"        XXXXXX..XXXX........XXXX      ",
"          OOOOOOOOOOOO....XXXXoo      ",
"          OOOOOOOOOOOO....XXXXoo      ",
"        ++++OO++++++++OOXX..XXXX      ",
"        ++++OO++++++++OOXX..XXXX      ",
"          @@####@@@@@@OOXXXXoooo      ",
"          @@####@@@@@@OOXXXXoooo      ",
"          ++####OO++++OO@@XXOO$$      ",
"          ++####OO++++OO@@XXOO$$      ",
"%%&&      **####******OO@@oo$$$$      ",
"%%&&      **####******OO@@oo$$$$      ",
"&&&&&&    **************@@@@oo        ",
"&&&&&&    **************@@@@oo        ",
"  &&==--==****OOOO******OOOO          ",
"  &&==--==****OOOO******OOOO          ",
"    --==;;oo**********OOOO            ",
"    --==;;oo**********OOOO            ",
"    ==;;;;;;::######>>,,,,,,<<,,      ",
"    ==;;;;;;::######>>,,,,,,<<,,      ",
"      ,,;;11::######>>,,,,,,<<,,<<    ",
"      ,,;;11::######>>,,,,,,<<,,<<    ",
"    ,,,,112233::>>>>,,,,,,<<,,<<<<<<  ",
"    ,,,,112233::>>>>,,,,,,<<,,<<<<<<  ",
"    ,,,,11222233<<<<<<<<,,,,<<<<<<<<  ",
"    ,,,,11222233<<<<<<<<,,,,<<<<<<<<  ",
"  ,,,,,,<<22222233<<<<<<,,,,<<<<<<<<<<",
"  ,,,,,,<<22222233<<<<<<,,,,<<<<<<<<<<",
"  444444<<<<22222233<<,,,,,,  <<,,,,,,",
"  444444<<<<22222233<<,,,,,,  <<,,,,,,",
"  ,,,,,,,,<<<<2222223333,,      <<<<<<",
"  ,,,,,,,,<<<<2222223333,,      <<<<<<",
"  555555  <<<<<<2222111111oo    ****OO",
"  555555  <<<<<<2222111111oo    ****OO",
"  OOOO55OO,,,,,,,,111111;;;;oo********",
"  OOOO55OO,,,,,,,,111111;;;;oo********",
"  OO55OOOO;;666622;;;;77;;;;;;OO******",
"  OO55OOOO;;666622;;;;77;;;;;;OO******",
"    OOOO  77771111111111  ;;;;  ****  ",
"    OOOO  77771111111111  ;;;;  ****  ",
"          77771111222211              ",
"          77771111222211              ",
"          1177772222222222            ",
"          1177772222222222            ",
"          1111772222222222            ",
"          1111772222222222            ",
"          111111772222222211          ",
"          111111772222222211          ",
"            111177  22222222          ",
"            111177  22222222          ",
"            111111  11222222          ",
"            111111  11222222          ",
"            1111      222211          ",
"            1111      222211          ",
"            ;;;;        ;;;;          ",
"            ;;;;        ;;;;          ",
"            oooo        7777          ",
"            oooo        7777          ",
"          oooooo        7777          ",
"          oooooo        7777          "
};
