/* XPM */
static const char *jump_left[] = {
/* columns rows colors chars-per-pixel */
"34 68 26 1 ",
"  c #2E1A23",
". c #172D3B",
"X c #2B2B26",
"o c #3F3F37",
"O c #402018",
"+ c #452933",
"@ c #543538",
"# c #613835",
"$ c #63403D",
"% c #244B57",
"& c #245257",
"* c #58594C",
"= c #8A583D",
"- c #815646",
"; c #A65A46",
": c #B76A50",
"> c #C7795A",
", c #418079",
"< c #BD8259",
"1 c #808274",
"2 c #E39C76",
"3 c #EBC678",
"4 c magenta",
"5 c #6EC09B",
"6 c #FFC79C",
"7 c #FFD1A4",
/* pixels */
"44====##======######44444444444444",
"44====##======######44444444444444",
"====##==========######++++++##4444",
"====##==========######++++++##4444",
"====================######++++4444",
"====================######++++4444",
"====######==####==========####4444",
"====######==####==========####4444",
"44==####2222222222====####++++4444",
"44==####2222222222====####++++4444",
"444444OO22OOOOOOOO22##==######4444",
"444444OO22OOOOOOOO22##==######4444",
"44444444;;;;>>>>>>22####++++++4444",
"44444444;;;;>>>>>>22####++++++4444",
"44444444;;;;22OOOO22>>##2266++4444",
"44444444;;;;22OOOO22>>##2266++4444",
"44444444;;;;77777722>>++6666444444",
"44444444;;;;77777722>>++6666444444",
"11**4444777777777777>>>>++++444444",
"11**4444777777777777>>>>++++444444",
"******447722227777772222>>44444444",
"******447722227777772222>>44444444",
"44**ooXX++777777772222>>4444444444",
"44**ooXX++777777772222>>4444444444",
"4444XX  --..;;;;&&,,,,,,55,,444444",
"4444XX  --..;;;;&&,,,,,,55,,444444",
"444444----....&&,,,,,,55,,55554444",
"444444----....&&,,,,,,55,,55554444",
"444444<<<<$$55555555,,55,,55555544",
"444444<<<<$$55555555,,55,,55555544",
"4444,,<<<<<<$$55555555,,5555555544",
"4444,,<<<<<<$$55555555,,5555555544",
"44%%%%55<<<<<<$$555555,,,,,,555555",
"44%%%%55<<<<<<$$555555,,,,,,555555",
"44,,,,5555<<<<<<--$$$$777755,,5555",
"44,,,,5555<<<<<<--$$$$777755,,5555",
"::::::555555<<<<<<--77777777,,5555",
"::::::555555<<<<<<--77777777,,5555",
"2222::,,55555555----77777722555544",
"2222::,,55555555----77777722555544",
"22::2222,,55555555,,22777744444444",
"22::2222,,55555555,,22777744444444",
"44222244  3333<<    @@    ++444444",
"44222244  3333<<    @@    ++444444",
"44444444--@@----------      444444",
"44444444--@@----------      444444",
"444444----@@--<<<<<<<<44    444444",
"444444----@@--<<<<<<<<44    444444",
"444444------@@<<<<<<<<444444444444",
"444444------@@<<<<<<<<444444444444",
"444444------@@--<<<<<<--4444444444",
"444444------@@--<<<<<<--4444444444",
"444444@@----  @@<<<<<<<<4444444444",
"444444@@----  @@<<<<<<<<4444444444",
"44444444    ++44--<<<<<<4444444444",
"44444444    ++44--<<<<<<4444444444",
"4444444444++++4444<<<<<<4444444444",
"4444444444++++4444<<<<<<4444444444",
"4444444444++++444444<<<<--44444444",
"4444444444++++444444<<<<--44444444",
"44444444444444444444--<<<<44444444",
"44444444444444444444--<<<<44444444",
"4444444444444444444444    44444444",
"4444444444444444444444    44444444",
"4444444444444444444444++++44444444",
"4444444444444444444444++++44444444",
"4444444444444444444444++++44444444",
"4444444444444444444444++++44444444"
};
