/* XPM */
static char *_c390239878142c7b0af6d237e320df2iOFC1NOeCkIZ7tJG[] = {
/* columns rows colors chars-per-pixel */
"34 68 26 1 ",
"  c None",
". c #2E1A23",
"X c #172D3B",
"o c #2B2B26",
"O c #3F3F37",
"+ c #402018",
"@ c #452933",
"# c #543538",
"$ c #613835",
"% c #63403D",
"& c #244B57",
"* c #245257",
"= c #58594C",
"- c #8A583D",
"; c #815646",
": c #A65A46",
"> c #B76A50",
", c #C7795A",
"< c #418079",
"1 c #BD8259",
"2 c #808274",
"3 c #E39C76",
"4 c #EBC678",
"5 c #6EC09B",
"6 c #FFC79C",
"7 c #FFD1A4",
/* pixels */
"              $$$$$$------$$----  ",
"              $$$$$$------$$----  ",
"    $$@@@@@@$$$$$$----------$$----",
"    $$@@@@@@$$$$$$----------$$----",
"    @@@@$$$$$$--------------------",
"    @@@@$$$$$$--------------------",
"    $$$$----------$$$$--$$$$$$----",
"    $$$$----------$$$$--$$$$$$----",
"    @@@@$$$$----3333333333$$$$--  ",
"    @@@@$$$$----3333333333$$$$--  ",
"    $$$$$$--$$33++++++++33++      ",
"    $$$$$$--$$33++++++++33++      ",
"    @@@@@@$$$$33,,,,,,::::        ",
"    @@@@@@$$$$33,,,,,,::::        ",
"    @@6633$$,,33++++33::::        ",
"    @@6633$$,,33++++33::::        ",
"      6666@@,,33777777::::        ",
"      6666@@,,33777777::::        ",
"      @@@@,,,,777777777777    ==22",
"      @@@@,,,,777777777777    ==22",
"        ,,3333777777333377  ======",
"        ,,3333777777333377  ======",
"          ,,333377777777@@ooOO==  ",
"          ,,333377777777@@ooOO==  ",
"      <<55<<<<<<**::::XX;;..oo    ",
"      <<55<<<<<<**::::XX;;..oo    ",
"    5555<<55<<<<<<**XXXX;;;;      ",
"    5555<<55<<<<<<**XXXX;;;;      ",
"  555555<<55<<55555555%%1111      ",
"  555555<<55<<55555555%%1111      ",
"  55555555<<55555555%%111111<<    ",
"  55555555<<55555555%%111111<<    ",
"555555<<<<<<555555%%11111155&&&&  ",
"555555<<<<<<555555%%11111155&&&&  ",
"5555<<557777%%%%;;1111115555<<<<  ",
"5555<<557777%%%%;;1111115555<<<<  ",
"5555<<77777777;;111111555555>>>>>>",
"5555<<77777777;;111111555555>>>>>>",
"  555533777777;;;;55555555<<>>3333",
"  555533777777;;;;55555555<<>>3333",
"        777733<<55555555<<3333>>33",
"        777733<<55555555<<3333>>33",
"      @@....##....114444..  3333  ",
"      @@....##....114444..  3333  ",
"      ......;;;;;;;;;;##;;        ",
"      ......;;;;;;;;;;##;;        ",
"      ....  11111111;;##;;;;      ",
"      ....  11111111;;##;;;;      ",
"            11111111##;;;;;;      ",
"            11111111##;;;;;;      ",
"          ;;111111;;##;;;;;;      ",
"          ;;111111;;##;;;;;;      ",
"          11111111##..;;;;##      ",
"          11111111##..;;;;##      ",
"          111111;;  @@....        ",
"          111111;;  @@....        ",
"          111111    @@@@          ",
"          111111    @@@@          ",
"        ;;1111      @@@@          ",
"        ;;1111      @@@@          ",
"        1111;;                    ",
"        1111;;                    ",
"        ....                      ",
"        ....                      ",
"        @@@@                      ",
"        @@@@                      ",
"        @@@@                      ",
"        @@@@                      "
};
