/* XPM */
static char *_078061960c74353a296fd933243066cP1zcIQIYktpFUhfY[] = {
/* columns rows colors chars-per-pixel */
"34 68 26 1 ",
"  c None",
". c #2E1A23",
"X c #172D3B",
"o c #2B2B26",
"O c #3F3F37",
"+ c #402018",
"@ c #452933",
"# c #543538",
"$ c #613835",
"% c #63403D",
"& c #244B57",
"* c #245257",
"= c #58594C",
"- c #8A583D",
"; c #815646",
": c #A65A46",
"> c #B76A50",
", c #C7795A",
"< c #418079",
"1 c #BD8259",
"2 c #808274",
"3 c #E39C76",
"4 c #EBC678",
"5 c #6EC09B",
"6 c #FFC79C",
"7 c #FFD1A4",
/* pixels */
"  ----$$------$$$$$$              ",
"  ----$$------$$$$$$              ",
"----$$----------$$$$$$@@@@@@$$    ",
"----$$----------$$$$$$@@@@@@$$    ",
"--------------------$$$$$$@@@@    ",
"--------------------$$$$$$@@@@    ",
"----$$$$$$--$$$$----------$$$$    ",
"----$$$$$$--$$$$----------$$$$    ",
"  --$$$$3333333333----$$$$@@@@    ",
"  --$$$$3333333333----$$$$@@@@    ",
"      ++33++++++++33$$--$$$$$$    ",
"      ++33++++++++33$$--$$$$$$    ",
"        ::::,,,,,,33$$$$@@@@@@    ",
"        ::::,,,,,,33$$$$@@@@@@    ",
"        ::::33++++33,,$$3366@@    ",
"        ::::33++++33,,$$3366@@    ",
"        ::::77777733,,@@6666      ",
"        ::::77777733,,@@6666      ",
"22==    777777777777,,,,@@@@      ",
"22==    777777777777,,,,@@@@      ",
"======  7733337777773333,,        ",
"======  7733337777773333,,        ",
"  ==OOoo@@777777773333,,          ",
"  ==OOoo@@777777773333,,          ",
"    oo..;;XX::::**<<<<<<55<<      ",
"    oo..;;XX::::**<<<<<<55<<      ",
"      ;;;;XXXX**<<<<<<55<<5555    ",
"      ;;;;XXXX**<<<<<<55<<5555    ",
"      1111%%55555555<<55<<555555  ",
"      1111%%55555555<<55<<555555  ",
"    <<111111%%55555555<<55555555  ",
"    <<111111%%55555555<<55555555  ",
"  &&&&55111111%%555555<<<<<<555555",
"  &&&&55111111%%555555<<<<<<555555",
"  <<<<5555111111;;%%%%777755<<5555",
"  <<<<5555111111;;%%%%777755<<5555",
">>>>>>555555111111;;77777777<<5555",
">>>>>>555555111111;;77777777<<5555",
"3333>><<55555555;;;;777777335555  ",
"3333>><<55555555;;;;777777335555  ",
"33>>3333<<55555555<<337777        ",
"33>>3333<<55555555<<337777        ",
"  3333  ..444411....##....@@      ",
"  3333  ..444411....##....@@      ",
"        ;;##;;;;;;;;;;......      ",
"        ;;##;;;;;;;;;;......      ",
"      ;;;;##;;11111111  ....      ",
"      ;;;;##;;11111111  ....      ",
"      ;;;;;;##11111111            ",
"      ;;;;;;##11111111            ",
"      ;;;;;;##;;111111;;          ",
"      ;;;;;;##;;111111;;          ",
"      ##;;;;..##11111111          ",
"      ##;;;;..##11111111          ",
"        ....@@  ;;111111          ",
"        ....@@  ;;111111          ",
"          @@@@    111111          ",
"          @@@@    111111          ",
"          @@@@      1111;;        ",
"          @@@@      1111;;        ",
"                    ;;1111        ",
"                    ;;1111        ",
"                      ....        ",
"                      ....        ",
"                      @@@@        ",
"                      @@@@        ",
"                      @@@@        ",
"                      @@@@        "
};
