/* XPM */
static const char *jump[] = {
/* columns rows colors chars-per-pixel */
"34 68 26 1 ",
"  c #2E1A23",
". c #172D3B",
"X c #2B2B26",
"o c #3F3F37",
"O c #402018",
"+ c #452933",
"@ c #543538",
"# c #613835",
"$ c #63403D",
"% c #244B57",
"& c #245257",
"* c #58594C",
"= c #8A583D",
"- c #815646",
"; c #A65A46",
": c #B76A50",
"> c #C7795A",
", c #418079",
"< c #BD8259",
"1 c #808274",
"2 c #E39C76",
"3 c #EBC678",
"4 c magenta",
"5 c #6EC09B",
"6 c #FFC79C",
"7 c #FFD1A4",
/* pixels */
"44444444444444######======##====44",
"44444444444444######======##====44",
"4444##++++++######==========##====",
"4444##++++++######==========##====",
"4444++++######====================",
"4444++++######====================",
"4444####==========####==######====",
"4444####==========####==######====",
"4444++++####====2222222222####==44",
"4444++++####====2222222222####==44",
"4444######==##22OOOOOOOO22OO444444",
"4444######==##22OOOOOOOO22OO444444",
"4444++++++####22>>>>>>;;;;44444444",
"4444++++++####22>>>>>>;;;;44444444",
"4444++6622##>>22OOOO22;;;;44444444",
"4444++6622##>>22OOOO22;;;;44444444",
"4444446666++>>22777777;;;;44444444",
"4444446666++>>22777777;;;;44444444",
"444444++++>>>>7777777777774444**11",
"444444++++>>>>7777777777774444**11",
"44444444>>222277777722227744******",
"44444444>>222277777722227744******",
"4444444444>>222277777777++XXoo**44",
"4444444444>>222277777777++XXoo**44",
"444444,,55,,,,,,&&;;;;..--  XX4444",
"444444,,55,,,,,,&&;;;;..--  XX4444",
"44445555,,55,,,,,,&&....----444444",
"44445555,,55,,,,,,&&....----444444",
"44555555,,55,,55555555$$<<<<444444",
"44555555,,55,,55555555$$<<<<444444",
"4455555555,,55555555$$<<<<<<,,4444",
"4455555555,,55555555$$<<<<<<,,4444",
"555555,,,,,,555555$$<<<<<<55%%%%44",
"555555,,,,,,555555$$<<<<<<55%%%%44",
"5555,,557777$$$$--<<<<<<5555,,,,44",
"5555,,557777$$$$--<<<<<<5555,,,,44",
"5555,,77777777--<<<<<<555555::::::",
"5555,,77777777--<<<<<<555555::::::",
"44555522777777----55555555,,::2222",
"44555522777777----55555555,,::2222",
"44444444777722,,55555555,,2222::22",
"44444444777722,,55555555,,2222::22",
"444444++    @@    <<3333  44222244",
"444444++    @@    <<3333  44222244",
"444444      ----------@@--44444444",
"444444      ----------@@--44444444",
"444444    44<<<<<<<<--@@----444444",
"444444    44<<<<<<<<--@@----444444",
"444444444444<<<<<<<<@@------444444",
"444444444444<<<<<<<<@@------444444",
"4444444444--<<<<<<--@@------444444",
"4444444444--<<<<<<--@@------444444",
"4444444444<<<<<<<<@@  ----@@444444",
"4444444444<<<<<<<<@@  ----@@444444",
"4444444444<<<<<<--44++    44444444",
"4444444444<<<<<<--44++    44444444",
"4444444444<<<<<<4444++++4444444444",
"4444444444<<<<<<4444++++4444444444",
"44444444--<<<<444444++++4444444444",
"44444444--<<<<444444++++4444444444",
"44444444<<<<--44444444444444444444",
"44444444<<<<--44444444444444444444",
"44444444    4444444444444444444444",
"44444444    4444444444444444444444",
"44444444++++4444444444444444444444",
"44444444++++4444444444444444444444",
"44444444++++4444444444444444444444",
"44444444++++4444444444444444444444"
};
