/* XPM */
static const char *idle08[] = {
/* columns rows colors chars-per-pixel */
"38 68 27 1 ",
"  c magenta",
". c #613835",
"X c #8A583D",
"o c #452933",
"O c #E39C76",
"+ c #402018",
"@ c #C7795A",
"# c #A65A46",
"$ c #FFC79C",
"% c #FFD1A4",
"& c #58594C",
"* c #808274",
"= c #3F3F37",
"- c #2B2B26",
"; c #2E1A23",
": c #418079",
"> c #6EC09B",
", c #245257",
"< c #172D3B",
"1 c #815646",
"2 c #63403D",
"3 c #BD8259",
"4 c #244B57",
"5 c #B76A50",
"6 c #543538",
"7 c #EBC678",
"8 c white",
/* pixels */
"                                      ",
"                                      ",
"      ..            XXXXXX..XXXXXX    ",
"      ..            XXXXXX..XXXXXX    ",
"      ..    ......XXXXXXXXXXXXXXXX    ",
"      ..    ......XXXXXXXXXXXXXXXX    ",
"      oooooo....XXXXXXXXXXXX..XX      ",
"      oooooo....XXXXXXXXXXXX..XX      ",
"      oooo....XXXXXXXXXXXXXX..XX      ",
"      oooo....XXXXXXXXXXXXXX..XX      ",
"      ....XXXXXXXX....XX....XX        ",
"      ....XXXXXXXX....XX....XX        ",
"      oo....XXXXOOOOOOOOOOOO          ",
"      oo....XXXXOOOOOOOOOOOO          ",
"      ....XX..OO++++++++OO++++        ",
"      ....XX..OO++++++++OO++++        ",
"      oooo....OO@@@@@@####@@          ",
"      oooo....OO@@@@@@####@@          ",
"      $$OO..@@OO++++OO####++          ",
"      $$OO..@@OO++++OO####++          ",
"      $$$$oo@@OO%%%%%%####%%      &&**",
"      $$$$oo@@OO%%%%%%####%%      &&**",
"        oo@@@@%%%%%%%%%%%%%%    &&&&&&",
"        oo@@@@%%%%%%%%%%%%%%    &&&&&&",
"          OOOO%%%%%%OOOO%%%%==--==&&  ",
"          OOOO%%%%%%OOOO%%%%==--==&&  ",
"            OOOO%%%%%%%%%%oo;;==--    ",
"            OOOO%%%%%%%%%%oo;;==--    ",
"      ::>>::::::,,######<<;;;;;;==    ",
"      ::>>::::::,,######<<;;;;;;==    ",
"    >>::>>::::::,,######<<11;;::      ",
"    >>::>>::::::,,######<<11;;::      ",
"  >>>>>>::>>::::::,,,,<<223311::::    ",
"  >>>>>>::>>::::::,,,,<<223311::::    ",
"  >>>>>>>>::::>>>>>>>>22333311::::    ",
"  >>>>>>>>::::>>>>>>>>22333311::::    ",
">>>>>>>>>>::::>>>>>>22333333>>::::::  ",
">>>>>>>>>>::::>>>>>>22333333>>::::::  ",
"::::::>>  ::::::>>22333333>>>>444444  ",
"::::::>>  ::::::>>22333333>>>>444444  ",
">>>>>>      ::2222333333>>>>::::::::  ",
">>>>>>      ::2222333333>>>>::::::::  ",
"OO%%%%    oo1111113333>>>>>>  555555  ",
"OO%%%%    oo1111113333>>>>>>  555555  ",
"%%%%%%%%oo;;;;111111::::::::OO55OOOO  ",
"%%%%%%%%oo;;;;111111::::::::OO55OOOO  ",
"%%%%%%OO;;;;;;66;;;;337777;;OOOO55OO  ",
"%%%%%%OO;;;;;;66;;;;337777;;OOOO55OO  ",
"  %%%%  ;;;;  11331111116666  OOOO    ",
"  %%%%  ;;;;  11331111116666  OOOO    ",
"              33333333116666          ",
"              33333333116666          ",
"            3333333333661111          ",
"            3333333333661111          ",
"            3333333311661111          ",
"            3333333311661111          ",
"          113333333366111111          ",
"          113333333366111111          ",
"          33333333  661111            ",
"          33333333  661111            ",
"          113333    111111            ",
"          113333    111111            ",
"          ;;;;        ;;;;            ",
"          ;;;;        ;;;;            ",
"          6666        oooo            ",
"          6666        oooo            ",
"          6666        oooooo          ",
"          6666        oooooo          "
};
