/* XPM */
static const char *idle02[] = {
/* columns rows colors chars-per-pixel */
"38 68 27 1 ",
"  c magenta",
". c #613835",
"X c #8A583D",
"o c #452933",
"O c #E39C76",
"+ c #402018",
"@ c #C7795A",
"# c #A65A46",
"$ c #FFC79C",
"% c #FFD1A4",
"& c #58594C",
"* c #808274",
"= c #3F3F37",
"- c #2B2B26",
"; c #418079",
": c #245257",
"> c #172D3B",
", c #815646",
"< c #2E1A23",
"1 c #6EC09B",
"2 c #63403D",
"3 c #BD8259",
"4 c #244B57",
"5 c #B76A50",
"6 c #543538",
"7 c #EBC678",
"8 c white",
/* pixels */
"                                      ",
"                                      ",
"              ........XXXX..XXXX      ",
"              ........XXXX..XXXX      ",
"      ..oooo......XXXXXXXX..XXXXXX    ",
"      ..oooo......XXXXXXXX..XXXXXX    ",
"      oooo....XXXXXXXXXXXXXXXXXXXX    ",
"      oooo....XXXXXXXXXXXXXXXXXXXX    ",
"      ....XXXXXXXX....XX......XX      ",
"      ....XXXXXXXX....XX......XX      ",
"      oo....XXXXOOOOOOOOOOOO..        ",
"      oo....XXXXOOOOOOOOOOOO..        ",
"      ....XX..OO++++++++OO++++        ",
"      ....XX..OO++++++++OO++++        ",
"      oooo....OO@@@@@@####@@          ",
"      oooo....OO@@@@@@####@@          ",
"      $$OO..@@OO++++OO####++          ",
"      $$OO..@@OO++++OO####++          ",
"      $$$$oo@@OO%%%%%%####%%          ",
"      $$$$oo@@OO%%%%%%####%%          ",
"        oo@@@@%%%%%%%%%%%%%%      &&**",
"        oo@@@@%%%%%%%%%%%%%%      &&**",
"          OOOO%%%%%%OOOO%%%%    &&&&&&",
"          OOOO%%%%%%OOOO%%%%    &&&&&&",
"            OOOO%%%%%%%%%%  ==--==&&  ",
"            OOOO%%%%%%%%%%  ==--==&&  ",
"        ;;;;;;;;::######>>,,<<==--    ",
"        ;;;;;;;;::######>>,,<<==--    ",
"      ;;11;;;;;;;;::::>>22,,,,;;==    ",
"      ;;11;;;;;;;;::::>>22,,,,;;==    ",
"    1111;;11;;;;1111112233,,,,;;      ",
"    1111;;11;;;;1111112233,,,,;;      ",
"  11111111;;;;1111112233333311;;;;    ",
"  11111111;;;;1111112233333311;;;;    ",
"  11111111;;;;1111223333331111;;;;    ",
"  11111111;;;;1111223333331111;;;;    ",
"1111111111;;;;2222333333111111;;;;;;  ",
"1111111111;;;;2222333333111111;;;;;;  ",
"11111111    ,,3333333311111111;;;;;;  ",
"11111111    ,,3333333311111111;;;;;;  ",
";;;;;;11      ,,,,,,11111111;;444444  ",
";;;;;;11      ,,,,,,11111111;;444444  ",
"111111    oo<<;;;;1111111111  ;;;;;;  ",
"111111    oo<<;;;;1111111111  ;;;;;;  ",
"OO%%%%  oo<<<<;;;;;;;;;;;;;;  555555  ",
"OO%%%%  oo<<<<;;;;;;;;;;;;;;  555555  ",
"%%%%%%%%<<<<<<66<<<<337777<<OO55OOOO  ",
"%%%%%%%%<<<<<<66<<<<337777<<OO55OOOO  ",
"%%%%%%OO<<<<  ,,33,,,,,,6666OOOO55OO  ",
"%%%%%%OO<<<<  ,,33,,,,,,6666OOOO55OO  ",
"  %%%%        33333333,,6666  OOOO    ",
"  %%%%        33333333,,6666  OOOO    ",
"            333333333366,,,,          ",
"            333333333366,,,,          ",
"            33333333,,66,,,,          ",
"            33333333,,66,,,,          ",
"          ,,3333333366,,,,,,          ",
"          ,,3333333366,,,,,,          ",
"          33333333  66,,,,            ",
"          33333333  66,,,,            ",
"          ,,3333    ,,,,,,            ",
"          ,,3333    ,,,,,,            ",
"          <<<<        <<<<            ",
"          <<<<        <<<<            ",
"          6666        oooo            ",
"          6666        oooo            ",
"          6666        oooooo          ",
"          6666        oooooo          "
};
