/* XPM */
static const char *idle06[] = {
/* columns rows colors chars-per-pixel */
"38 68 27 1 ",
"  c magenta",
". c #8A583D",
"X c #613835",
"o c #452933",
"O c #E39C76",
"+ c #402018",
"@ c #C7795A",
"# c #A65A46",
"$ c #FFC79C",
"% c #FFD1A4",
"& c #58594C",
"* c #808274",
"= c #3F3F37",
"- c #2B2B26",
"; c #2E1A23",
": c #418079",
"> c #6EC09B",
", c #245257",
"< c #172D3B",
"1 c #815646",
"2 c #63403D",
"3 c #BD8259",
"4 c #244B57",
"5 c #B76A50",
"6 c #543538",
"7 c #EBC678",
"8 c white",
/* pixels */
"                      ....  ......    ",
"                      ....  ......    ",
"      XX      XXXXXX......XX......    ",
"      XX      XXXXXX......XX......    ",
"        ooooXXXXXX................    ",
"        ooooXXXXXX................    ",
"      ooooXXXX..............XX..      ",
"      ooooXXXX..............XX..      ",
"      XXXX........XXXX..XXXXXX        ",
"      XXXX........XXXX..XXXXXX        ",
"      ooXXXX....OOOOOOOOOOOO          ",
"      ooXXXX....OOOOOOOOOOOO          ",
"      XXXX..XXOO++++++++OO++++        ",
"      XXXX..XXOO++++++++OO++++        ",
"      ooooXXXXOO@@@@@@####@@          ",
"      ooooXXXXOO@@@@@@####@@          ",
"      $$OOXX@@OO++++OO####++          ",
"      $$OOXX@@OO++++OO####++          ",
"      $$$$oo@@OO%%%%%%####%%      &&**",
"      $$$$oo@@OO%%%%%%####%%      &&**",
"        oo@@@@%%%%%%%%%%%%%%    &&&&&&",
"        oo@@@@%%%%%%%%%%%%%%    &&&&&&",
"          OOOO%%%%%%OOOO%%%%==--==&&  ",
"          OOOO%%%%%%OOOO%%%%==--==&&  ",
"            OOOO%%%%%%%%%%oo;;==--    ",
"            OOOO%%%%%%%%%%oo;;==--    ",
"      ::>>::::::,,######<<11;;;;==    ",
"      ::>>::::::,,######<<11;;;;==    ",
"    >>>>::>>::::::,,,,<<221111::      ",
"    >>>>::>>::::::,,,,<<221111::      ",
"  >>>>>>>>::::::>>>>>>22333311::::    ",
"  >>>>>>>>::::::>>>>>>22333311::::    ",
"  >>>>>>>>::::>>>>>>22333333>>::::    ",
"  >>>>>>>>::::>>>>>>22333333>>::::    ",
">>>>>>>>>>::::::>>22333333>>>>::::::  ",
">>>>>>>>>>::::::>>22333333>>>>::::::  ",
"::::::>>    ::2222333333>>>>>>444444  ",
"::::::>>    ::2222333333>>>>>>444444  ",
">>>>>>      1111333333>>>>>>  ::::::  ",
">>>>>>      1111333333>>>>>>  ::::::  ",
"OO%%%%    oo;;111111>>>>>>>>  555555  ",
"OO%%%%    oo;;111111>>>>>>>>  555555  ",
"%%%%%%%%oo;;;;::::::::::::::OO55OOOO  ",
"%%%%%%%%oo;;;;::::::::::::::OO55OOOO  ",
"%%%%%%OO;;;;;;66;;;;337777;;OOOO55OO  ",
"%%%%%%OO;;;;;;66;;;;337777;;OOOO55OO  ",
"  %%%%  ;;;;  11111111116666  OOOO    ",
"  %%%%  ;;;;  11111111116666  OOOO    ",
"              33333333116666          ",
"              33333333116666          ",
"            3333333333661111          ",
"            3333333333661111          ",
"            3333333311661111          ",
"            3333333311661111          ",
"          113333333366111111          ",
"          113333333366111111          ",
"          33333333  661111            ",
"          33333333  661111            ",
"          33333311  111111            ",
"          33333311  111111            ",
"          113333      1111            ",
"          113333      1111            ",
"          ;;;;        ;;;;            ",
"          ;;;;        ;;;;            ",
"          6666        oooo            ",
"          6666        oooo            ",
"          6666        oooooo          ",
"          6666        oooooo          "
};
