/* XPM */
static char *result[] = {
/* columns rows colors chars-per-pixel */
"19 34 26 1 ",
"  c #2E1A23",
". c #172D3B",
"X c #2B2B26",
"o c #3F3F37",
"O c #402018",
"+ c #452933",
"@ c #543538",
"# c #613835",
"$ c #63403D",
"% c #244B57",
"& c #245257",
"* c #58594C",
"= c #8A583D",
"- c #815646",
"; c #A65A46",
": c #B76A50",
"> c #C7795A",
", c #418079",
"< c #BD8259",
"1 c #808274",
"2 c #E39C76",
"3 c #EBC678",
"4 c #6EC09B",
"5 c #FFC79C",
"6 c #FFD1A4",
"7 c None",
/* pixels */
"77777777777==7===77",
"777#777###===#===77",
"7777++###========77",
"777++##=======#=777",
"777##====##=###7777",
"777+##==22222277777",
"777##=#2OOOO2OO7777",
"777++##2>>>;;>77777",
"77752#>2OO2;;O77777",
"77755+>2666;;6777*1",
"7777+>>666666677***",
"77777226662266oXo*7",
"7777772266666+ oX77",
"777,4,,,&;;;.   o77",
"774,4,,,&;;;.- ,777",
"7444,4,,,&&.$<-,,77",
"74444,,4444$<<-,,77",
"44444,,444$<<<4,,,7",
",,,47,,,4$<<<44%%%7",
"444777,$$<<<44,,,,7",
"26677+---<<4447:::7",
"6666+  ---,,,,2:227",
"6662   @  <33 22:27",
"7667  7-----@@72277",
"7777777-<<--@@77777",
"777777<<<<<@@-77777",
"777777<<<<<@--77777",
"77777-<<<<@---77777",
"77777<<<<7@--777777",
"77777<<<-7---777777",
"77777-<<777--777777",
"77777  7777  777777",
"77777@@7777++777777",
"77777@@7777+++77777"
};
