/* XPM */
static char *result[] = {
/* columns rows colors chars-per-pixel */
"19 34 26 1 ",
"  c #2E1A23",
". c #172D3B",
"X c #2B2B26",
"o c #3F3F37",
"O c #402018",
"+ c #452933",
"@ c #543538",
"# c #613835",
"$ c #63403D",
"% c #244B57",
"& c #245257",
"* c #58594C",
"= c #8A583D",
"- c #815646",
"; c #A65A46",
": c #B76A50",
"> c #C7795A",
", c #418079",
"< c #BD8259",
"1 c #808274",
"2 c #E39C76",
"3 c #EBC678",
"4 c #6EC09B",
"5 c #FFC79C",
"6 c #FFD1A4",
"7 c None",
/* pixels */
"7777777777777777777",
"7777777####==#==777",
"777#++###====#===77",
"777++##==========77",
"777##====##=###=777",
"777+##==222222#7777",
"777##=#2OOOO2OO7777",
"777++##2>>>;;>77777",
"77752#>2OO2;;O77777",
"77755+>2666;;677777",
"7777+>>6666666777*1",
"7777722666226677***",
"77777722666667oXo*7",
"7777,,,,&;;;.- oX77",
"777,4,,,,&&.$--,o77",
"7744,4,,444$<--,777",
"74444,,444$<<<4,,77",
"74444,,44$<<<44,,77",
"44444,,$$<<<444,,,7",
"444477-<<<<4444,,,7",
",,,4777---4444,%%%7",
"44477+ ,,444447,,,7",
"2667+  ,,,,,,,7:::7",
"6666   @  <33 2:227",
"6662  7-<---@@22:27",
"7667777<<<<-@@72277",
"777777<<<<<@--77777",
"777777<<<<-@--77777",
"77777-<<<<@---77777",
"77777<<<<7@--777777",
"77777-<<77---777777",
"77777  7777  777777",
"77777@@7777++777777",
"77777@@7777+++77777"
};
