/* XPM */
static const char *idle03[] = {
/* columns rows colors chars-per-pixel */
"38 68 27 1 ",
"  c magenta",
". c #613835",
"X c #8A583D",
"o c #452933",
"O c #E39C76",
"+ c #402018",
"@ c #C7795A",
"# c #A65A46",
"$ c #FFC79C",
"% c #FFD1A4",
"& c #58594C",
"* c #808274",
"= c #3F3F37",
"- c #2B2B26",
"; c #2E1A23",
": c #418079",
"> c #6EC09B",
", c #245257",
"< c #172D3B",
"1 c #815646",
"2 c #63403D",
"3 c #BD8259",
"4 c #244B57",
"5 c #B76A50",
"6 c #543538",
"7 c #EBC678",
"8 c white",
/* pixels */
"                                      ",
"                                      ",
"      ..      ........XXXX..XXXXXX    ",
"      ..      ........XXXX..XXXXXX    ",
"        oooo......XXXXXXXXXXXXXXXX    ",
"        oooo......XXXXXXXXXXXXXXXX    ",
"      oooo....XXXXXXXXXXXXXXXXXXXX    ",
"      oooo....XXXXXXXXXXXXXXXXXXXX    ",
"      ....XXXXXXXX..............      ",
"      ....XXXXXXXX..............      ",
"      oo....XXXXOOOOOOOOOOOO          ",
"      oo....XXXXOOOOOOOOOOOO          ",
"      ....XX..OO++++++++OO++++        ",
"      ....XX..OO++++++++OO++++        ",
"      oooo....OO@@@@@@####@@          ",
"      oooo....OO@@@@@@####@@          ",
"      $$OO..@@OO++++OO####++          ",
"      $$OO..@@OO++++OO####++          ",
"      $$$$oo@@OO%%%%%%####%%      &&**",
"      $$$$oo@@OO%%%%%%####%%      &&**",
"        oo@@@@%%%%%%%%%%%%%%    &&&&&&",
"        oo@@@@%%%%%%%%%%%%%%    &&&&&&",
"          OOOO%%%%%%OOOO%%%%==--==&&  ",
"          OOOO%%%%%%OOOO%%%%==--==&&  ",
"            OOOO%%%%%%%%%%oo;;==--    ",
"            OOOO%%%%%%%%%%oo;;==--    ",
"      ::>>::::::,,######<<11;;;;==    ",
"      ::>>::::::,,######<<11;;;;==    ",
"    >>>>::>>::::::,,,,<<221111::      ",
"    >>>>::>>::::::,,,,<<221111::      ",
"    >>>>::>>::::>>>>>>22331111::      ",
"    >>>>::>>::::>>>>>>22331111::      ",
"  >>>>>>>>::::>>>>>>22333333>>::::    ",
"  >>>>>>>>::::>>>>>>22333333>>::::    ",
"  >>>>>>>>::::::>>22333333>>>>::::    ",
"  >>>>>>>>::::::>>22333333>>>>::::    ",
">>>>>>>>>>  ::2222333333>>>>>>::::::  ",
">>>>>>>>>>  ::2222333333>>>>>>::::::  ",
"::::::>>    1133333333>>>>>>>>444444  ",
"::::::>>    1133333333>>>>>>>>444444  ",
">>>>>>::  oo;;111111>>>>>>>>44::::::  ",
">>>>>>::  oo;;111111>>>>>>>>44::::::  ",
"OO%%%%  oo;;;;::::::::::::::  555555  ",
"OO%%%%  oo;;;;::::::::::::::  555555  ",
"%%%%%%%%;;;;;;66;;;;337777;;OO55OOOO  ",
"%%%%%%%%;;;;;;66;;;;337777;;OO55OOOO  ",
"%%%%%%OO;;;;  11111111116666OOOO55OO  ",
"%%%%%%OO;;;;  11111111116666OOOO55OO  ",
"  %%%%        11333311116666  OOOO    ",
"  %%%%        11333311116666  OOOO    ",
"            3333333333666611          ",
"            3333333333666611          ",
"            3333333333661111          ",
"            3333333333661111          ",
"          113333333366111111          ",
"          113333333366111111          ",
"          33333333  661111            ",
"          33333333  661111            ",
"          33333311  111111            ",
"          33333311  111111            ",
"          113333      1111            ",
"          113333      1111            ",
"          ;;;;        ;;;;            ",
"          ;;;;        ;;;;            ",
"          6666        oooo            ",
"          6666        oooo            ",
"          6666        oooooo          ",
"          6666        oooooo          "
};
