/* XPM */
static char *result[] = {
/* columns rows colors chars-per-pixel */
"38 68 26 1 ",
"  c #2E1A23",
". c #172D3B",
"X c #2B2B26",
"o c #3F3F37",
"O c #402018",
"+ c #452933",
"@ c #543538",
"# c #613835",
"$ c #63403D",
"% c #244B57",
"& c #245257",
"* c #58594C",
"= c #8A583D",
"- c #815646",
"; c #A65A46",
": c #B76A50",
"> c #C7795A",
", c #418079",
"< c #BD8259",
"1 c #808274",
"2 c #E39C76",
"3 c #EBC678",
"4 c #6EC09B",
"5 c #FFC79C",
"6 c #FFD1A4",
"7 c None",
/* pixels */
"7777777777777777777777====77======7777",
"7777777777777777777777====77======7777",
"777777##777777######======##======7777",
"777777##777777######======##======7777",
"77777777++++######================7777",
"77777777++++######================7777",
"777777++++####==============##==777777",
"777777++++####==============##==777777",
"777777####========####==######77777777",
"777777####========####==######77777777",
"777777++####====2222222222227777777777",
"777777++####====2222222222227777777777",
"777777####==##22OOOOOOOO22OOOO77777777",
"777777####==##22OOOOOOOO22OOOO77777777",
"777777++++####22>>>>>>;;;;>>7777777777",
"777777++++####22>>>>>>;;;;>>7777777777",
"7777775522##>>22OOOO22;;;;OO7777777777",
"7777775522##>>22OOOO22;;;;OO7777777777",
"7777775555++>>22666666;;;;66777777**11",
"7777775555++>>22666666;;;;66777777**11",
"77777777++>>>>666666666666667777******",
"77777777++>>>>666666666666667777******",
"7777777777222266666622226666ooXXoo**77",
"7777777777222266666622226666ooXXoo**77",
"77777777777722226666666666++  ooXX7777",
"77777777777722226666666666++  ooXX7777",
"777777,,44,,,,,,&&;;;;;;..      oo7777",
"777777,,44,,,,,,&&;;;;;;..      oo7777",
"777744,,44,,,,,,&&;;;;;;..--  ,,777777",
"777744,,44,,,,,,&&;;;;;;..--  ,,777777",
"77444444,,44,,,,,,&&&&..$$<<--,,,,7777",
"77444444,,44,,,,,,&&&&..$$<<--,,,,7777",
"7744444444,,,,44444444$$<<<<--,,,,7777",
"7744444444,,,,44444444$$<<<<--,,,,7777",
"4444444444,,,,444444$$<<<<<<44,,,,,,77",
"4444444444,,,,444444$$<<<<<<44,,,,,,77",
",,,,,,4477,,,,,,44$$<<<<<<4444%%%%%%77",
",,,,,,4477,,,,,,44$$<<<<<<4444%%%%%%77",
"444444777777,,$$$$<<<<<<4444,,,,,,,,77",
"444444777777,,$$$$<<<<<<4444,,,,,,,,77",
"2266667777++------<<<<44444477::::::77",
"2266667777++------<<<<44444477::::::77",
"66666666++    ------,,,,,,,,22::222277",
"66666666++    ------,,,,,,,,22::222277",
"66666622      @@    <<3333  2222::2277",
"66666622      @@    <<3333  2222::2277",
"77666677    77----------@@@@7722227777",
"77666677    77----------@@@@7722227777",
"77777777777777--<<<<----@@@@7777777777",
"77777777777777--<<<<----@@@@7777777777",
"777777777777<<<<<<<<<<@@@@--7777777777",
"777777777777<<<<<<<<<<@@@@--7777777777",
"777777777777<<<<<<<<<<@@----7777777777",
"777777777777<<<<<<<<<<@@----7777777777",
"7777777777--<<<<<<<<@@------7777777777",
"7777777777--<<<<<<<<@@------7777777777",
"7777777777<<<<<<<<77@@----777777777777",
"7777777777<<<<<<<<77@@----777777777777",
"7777777777<<<<<<--77------777777777777",
"7777777777<<<<<<--77------777777777777",
"7777777777--<<<<777777----777777777777",
"7777777777--<<<<777777----777777777777",
"7777777777    77777777    777777777777",
"7777777777    77777777    777777777777",
"7777777777@@@@77777777++++777777777777",
"7777777777@@@@77777777++++777777777777",
"7777777777@@@@77777777++++++7777777777",
"7777777777@@@@77777777++++++7777777777"
};
